<svg xmlns="http://www.w3.org/2000/svg" width="329.326" height="361.779">
  <defs>
    <style>
      .a{fill:none;stroke:#000;stroke-miterlimit:10;stroke-width:2px}.b{fill:#43b060}
    </style>
  </defs>
  <path class="a" d="M26.584 38.653h231.927v12.888H26.584z"/>
  <path class="b" d="M258.511 19.328A19.346 19.346 0 00239.183 0H45.909a19.345 19.345 0 00-19.325 19.328v6.44h231.927z"/>
  <path class="a" d="M38.1 127.125a10.049 10.049 0 00-9.019-.6l-13.515 5.819c-.55.236-1.126.377-1.688.569a127.717 127.717 0 00-6.619 40.262v20.872A127.265 127.265 0 0020.675 251l47.343 94.552c8.831 7.5 37.316 15.227 74.53 15.227 37.145 0 65.672-7.732 74.53-15.224l47.335-94.541a127.26 127.26 0 0013.427-56.966v-20.873a127.806 127.806 0 00-6.62-40.267c-.564-.192-1.137-.33-1.69-.569l-13.515-5.819a10.067 10.067 0 00-9.02.6c-.322.212-1.368.958-1.368 1.69v1.75a15.515 15.515 0 01-10.525 14.24 22.211 22.211 0 01-23.812-4.123l-10.157-10.3a9.373 9.373 0 00-8.769-1.591c-1.866.536-3.27 1.547-3.484 2.513l-.886 3.914a17.435 17.435 0 01-15.043 12.634 20.7 20.7 0 01-21.164-8.3l-2.995-4.858a9.8 9.8 0 00-12.488 0l-2.993 4.855a19.854 19.854 0 01-17.129 8.643 24.779 24.779 0 01-4.033-.335 17.439 17.439 0 01-15.048-12.64l-.883-3.912c-.218-.972-1.621-1.981-3.487-2.516a9.389 9.389 0 00-8.772 1.589l-10.151 10.3a22.211 22.211 0 01-23.817 4.127 15.511 15.511 0 01-10.522-14.237v-1.748c0-.732-1.049-1.478-1.369-1.69z"/>
  <path class="b" d="M307.969 66.55c16.3-19.622 28.458-45.259 16.623-55.2-11.938-9.912-34.946 6.71-51.269 26.35a117.35 117.35 0 00-17.138 26.73H26.584v12.88h225.685c-.047.316-.14.66-.173.966a6.4 6.4 0 00.341 2.9 6.382 6.382 0 00-.295 3.246 14.357 14.357 0 002.37 5.766H23.157L.5 117.359c-.691.826-.57.994-.2 1.489a9.086 9.086 0 0010.167 1.66l13.519-5.826a22.97 22.97 0 0121.2 1.676 14.943 14.943 0 017.168 12.453v1.748c0 .944 1.365 1.838 2.533 2.315a9.585 9.585 0 009.747-1.247l10.148-10.3a20.9 20.9 0 0114.9-5.858 23.894 23.894 0 016.584.925 16.9 16.9 0 0112.522 12.067l.884 3.906c.278 1.225 2.166 2.367 4.594 2.771a8.263 8.263 0 008.076-2.354l2.989-4.858a21.482 21.482 0 0134.434 0l2.993 4.858a8.273 8.273 0 008.078 2.354c2.425-.4 4.313-1.541 4.589-2.766l.884-3.911a16.9 16.9 0 0112.522-12.062 21.925 21.925 0 0121.483 4.933l10.157 10.3a9.558 9.558 0 009.741 1.249c1.167-.476 2.532-1.371 2.532-2.315v-1.748a14.947 14.947 0 017.168-12.455 22.938 22.938 0 0121.2-1.674l13.523 5.818a9.076 9.076 0 0010.165-1.657c.371-.5.493-.666-.192-1.492L267.19 96.483a50.735 50.735 0 0132.961 6.873 38.786 38.786 0 0115.3 26.589 6.441 6.441 0 006.342 5.348 6.694 6.694 0 001.1-.094 6.443 6.443 0 005.252-7.442A51.093 51.093 0 00307.4 92.713a52.32 52.32 0 00-18.221-7.8 125.332 125.332 0 0018.79-18.363zm-42.885 16.59a2.559 2.559 0 01-.231-.826 5.924 5.924 0 00-.295-1.131 6.42 6.42 0 00.342-1.484 78.2 78.2 0 0118.326-33.765c16.279-19.584 30.575-25.566 33-24.817 1.541 2.513-1.594 17.258-18.156 37.189-16.578 19.876-30.585 25.605-32.986 24.834z"/>
</svg>
