<svg xmlns="http://www.w3.org/2000/svg" width="552.844" height="364.469" viewBox="0 0 552.844 364.469"><defs><style>.a,.c,.d,.f{fill:none;}.a,.f{stroke:#fff;}.a,.c,.d{stroke-miterlimit:10;}.a,.c,.f{stroke-width:2px;}.b{fill:#ffe75c;}.c{stroke:#000;}.d{stroke:#ffe75c;}.e{fill:#feea78;}</style></defs><g transform="translate(-269.737 -4910.824)"><g transform="translate(-489.775 4499.343)"><path class="a" d="M814.807,711.961c16.47-14.811,32.506-29.364,45.951-46.768a9.636,9.636,0,0,0-1.419-.3c-19.979-1.075-39.967-2.016-59.936-3.248a107.136,107.136,0,0,1-35.488-8.161c-.508-.217-.981-.521-1.85-.986,4.439-1.42,8.522-2.668,12.566-4.032a566.048,566.048,0,0,0,91.684-40.15c9.3-5.1,18.341-10.666,27.525-15.975a3.066,3.066,0,0,0,1.709-3.093,47.121,47.121,0,0,1,4.757-22.231,25.84,25.84,0,0,1,12.077-12.285c15.924-7.492,31.891-14.9,47.84-22.336l2.075-.97c-.734-.28-1.2-.485-1.677-.634-11.777-3.663-23.636-7.086-35.318-11.035a445.376,445.376,0,0,1-47.791-19.116c-16.219-7.665-31.905-16.277-45.756-27.828-7.5-6.257-14.454-13.073-18.893-21.988-3.736-7.5-4.927-15.213-.558-22.8,3.443-5.977,8.762-10.127,15-12.993,11.213-5.153,21.561-2.183,31.51,3.656,8.541,5.012,15.369,12.18,22.894,18.466,7.092,5.923,13.986,12.09,21.21,17.845,10.327,8.227,20.76,16.336,31.381,24.175a157.883,157.883,0,0,0,16.119,10.086c9.467,5.355,19.085,10.439,28.634,15.649a5.041,5.041,0,0,0,4.262.557c2.741-.837,5.438.033,7.925,1.329,5.376,2.8,10.746,5.615,16.072,8.508a3.8,3.8,0,0,0,3.813.209c14.932-6.907,29.862-13.824,44.873-20.558a129.661,129.661,0,0,1,17.682-6.915,76.572,76.572,0,0,1,16.835-2.59q48.156-2.416,96.339-4.338a37.93,37.93,0,0,1,23.564,7.278c4.852,3.418,6.739,8.542,7.2,14.179.567,6.97.829,13.965,1.245,21.315l53.645,4.652-30.232,32.991c22.72,2.94,45.115,2.564,68.021,1.673-1.169,1.553-2,2.857-3.023,3.984-9.657,10.638-19.011,21.578-29.11,31.779-13,13.129-26.712,25.55-39.9,38.493-7.26,7.123-14.048,14.724-21.146,22.017a5.973,5.973,0,0,1-3.486,1.663c-12.093.989-24.188,2.07-36.3,2.671-18.542.92-37.1,1.473-55.654,2.22a4.256,4.256,0,0,0-2.18.721q-21.082,15.01-42.122,30.084-19.742,14.088-39.556,28.073a6.643,6.643,0,0,1-3.834.858q-47.105-1.8-94.2-3.744c-14.651-.618-29.308-1.231-43.931-2.269-16.784-1.19-33.538-2.781-50.294-4.327-9.417-.869-18.809-2-28.211-3.017C816.628,712.328,815.931,712.16,814.807,711.961Z" transform="translate(0 0)"/><path class="b" d="M1036.922,610.656l.376.557c1.686-1.152,3.769-1.99,4.977-3.519a58.305,58.305,0,0,0,7.318-10.868c5.206-11.049,7.849-22.6,5.023-34.88a47.211,47.211,0,0,0-18.085-27.929c-11.792-8.884-25.493-12.5-39.854-14.309-11.051-1.39-22.068-.355-33.106.166a451.288,451.288,0,0,1-55.877-.857c-6.621-.508-13.237-1.48-19.858-1.494-13.082-.029-22.784,8.743-24.443,21.724a126.6,126.6,0,0,0-.894,13.613q-.414,21.671-.569,43.346c-.04,6.719,1.126,8.059,7.781,8.537,12.386.888,24.783,1.763,37.191,2.194,28.244.981,56.489.521,84.724-.584a3.5,3.5,0,0,0,2.191-1.191c2.344-2.708,4.311-5.793,6.89-8.238,6.832-6.476,13.564-13.03,18.446-21.148,6.084-10.12,6.612-18.413-1.9-27.911-3.505-3.913-7.651-7.253-11.138-10.511a48.705,48.705,0,0,1,13.678,10.081c8.4,8.859,9.527,17.592,3.62,29.138-3.768,7.367-9.744,13.008-15.463,18.851a62.853,62.853,0,0,0-8.339,10.139c-2.733,4.326-1.511,7.882,2.731,10.728,5.155,3.458,10.79,3.849,16.63,2.531,11.083-2.5,17.922-9.918,22.579-19.789.373-.792.709-1.6,1.063-2.4A25.13,25.13,0,0,1,1036.922,610.656Z" transform="translate(38.108 40.123)"/><path class="c" d="M922.386,521.581c-.812-.479-1.1-.67-1.405-.825-3.667-1.85-7.342-3.683-11-5.546a5.879,5.879,0,0,1-3.447-6.382c.235-2.067.54-4.125.872-6.625" transform="translate(55.107 34.277)"/><path class="c" d="M1058.694,495.6" transform="translate(113.192 31.756)"/><path class="b" d="M1142.362,480.927a11.78,11.78,0,0,1,.279,1.7q.547,21.439,1.05,42.876c.054,2.448-.258,4.909-.146,7.353.293,6.342-1.956,11.791-5.851,16.572-6.109,7.5-12.191,15.03-18.635,22.235-8.373,9.358-16.854,18.643-25.731,27.519-7.338,7.335-15.162,14.211-23.06,20.95-6.913,5.9-15.257,7.81-24.258,7.375-9.156-.442-18.323-.688-27.762-1.031a76.54,76.54,0,0,0,9.934-23.061c4.494,1.055,8.868,2.165,13.278,3.1,9.048,1.926,18.156,3.719,27.454,2.842a34.967,34.967,0,0,0,10.829-2.7c10.37-4.638,10.113-16.879,6.214-23.131-3.52-5.645-8.536-9.754-13.924-13.44a2.9,2.9,0,0,1-1.344-2.646c-.39-6.7-.719-13.4-1.362-20.075-.417-4.32-3.292-7.07-6.978-9.031a31.879,31.879,0,0,0-15.5-3.386c-11.767.094-23.53.482-35.3.6a9.785,9.785,0,0,1-4.877-1.253q-26.616-14.942-53.118-30.081c-2.734-1.553-5.431-3.168-8.483-4.952,1.154-.571,1.955-1,2.781-1.372q19.006-8.623,38.017-17.231c4.322-1.955,8.689-3.809,12.98-5.825,7.834-3.679,16.281-4.5,24.7-4.953,28.057-1.507,56.131-2.713,84.194-4.106,6.513-.323,13.1-.772,19.374,1.017a36.553,36.553,0,0,1,7.919,3.606,15.138,15.138,0,0,1,6.8,7.888,7.3,7.3,0,0,1,.526,2.644" transform="translate(69.834 20.261)"/><path class="d" d="M1037.7,511.573" transform="translate(105.18 37.852)"/><path class="a" d="M907.4,502.2c-.332,2.5-.637,4.558-.872,6.625a5.879,5.879,0,0,0,3.447,6.382c3.66,1.862,7.335,3.7,11,5.546.305.155.593.345,1.405.825" transform="translate(55.107 34.277)"/><path class="c" d="M834.322,433.431" transform="translate(27.573 8.034)"/><path class="a" d="M848.629,473.3c-.859-.38-1.739-.72-2.575-1.148-9.154-4.686-17.857-10.058-25.528-16.977-5.257-4.74-9.923-9.956-11.994-16.908-1.714-5.756.669-10.285,6.032-13.044,9.692-4.986,18.064-2.287,25.724,4.237,7.8,6.646,15.167,13.826,23.179,20.2,13.269,10.553,26.9,20.647,40.383,30.934.569.435,1.133.879,1.7,1.318" transform="translate(17.522 3.918)"/><path class="c" d="M811.61,434.576" transform="translate(18.906 8.471)"/><path class="a" d="M937.425,491.446c-1.612,2.285-3.171,4.615-4.894,6.814-.28.358-1.35.361-1.944.174-21.825-6.86-43.436-14.3-64.092-24.24-5.911-2.845-11.7-5.931-17.545-8.921-.63-.323-1.21-.746-1.814-1.123" transform="translate(32.463 19.756)"/><path class="a" d="M939.573,486.874,1017.8,531.44l50.246,27.245s20.048,7.925,22.277,23.128-13.261,18.327-13.261,18.327-11.731,5.184-46.781-4.894l-5.113-1.969" transform="translate(67.736 28.427)"/></g><g transform="translate(410.043 161.183) rotate(-7)"><path class="b" d="M50.195,349.887q41.453,29.61,33.163,75.8c-1.824,4.9-59.235-11.362-69.288-11.844C3.5,413.338-1.971,403.861.65,395.463,8.716,369.613,23.868,352.7,50.195,349.887Z" transform="translate(-423.926 4667.273)"/><path class="e" d="M59.305,349.888c-17.286,1.848-29.754,9.773-38.562,22.315A94.373,94.373,0,0,0,27.3,387.411c4.112,7.722,14.674,10.573,22.51,3.365,3.581-3.3,17.566-11.876,30.807-20.4a93.67,93.67,0,0,0-21.313-20.491Z" transform="translate(-433.036 4667.273)"/></g><path class="f" d="M52.321,299.659a7.272,7.272,0,0,0-5.236-1.47c-22.758,2.6-38.309,17.65-46.22,44.737-3.569,12.217,4.217,25.739,17.676,26.308,6.053.311,41.913,10.944,53.073,10.944,6.449,0,9.681-3.245,10.39-7.48C86.829,343.976,77.52,318.887,52.321,299.659Z" transform="translate(565.768 4897.674) rotate(-8)"/></g></svg>