<svg xmlns="http://www.w3.org/2000/svg" width="137.007" height="36.917">
  <path d="M26.819 34.877c8.04 1.357 17.831 1.784 27.177-1.281 7.985-2.619 16.34-5.432 24.6-6.632 8.231-1.2 16.208-.077 24.448-.006 9.81.085 13.384-4.764 20.879-7.887 4.222-1.76 19.221-3.828 7.944-9.55-5.768-2.927-16.915.954-22.475 2.5-9.873 2.737-10.669 2.565-19.265-3.038-6.447-4.2-11.27-5.423-18.161-.2-8.481 6.431-7.789 10.755-17.952 2.55-9.093-7.341-18.761-9.674-30.068-10.266-12-.628-25.507 3.835-22.5 18.527C3.876 31.472 16.1 33.341 26.102 34.878" fill="none" stroke="#fff" stroke-miterlimit="10" stroke-width="2"/>
</svg>
