<svg xmlns="http://www.w3.org/2000/svg" width="158.561" height="42.492">
  <path d="M127.62 2.206C118.296.632 106.942.137 96.103 3.692c-9.26 3.037-18.95 6.3-28.526 7.691-9.546 1.388-18.8.09-28.352.007-11.376-.1-15.521 5.524-24.214 9.147-4.9 2.041-22.29 4.439-9.212 11.075 6.689 3.394 19.615-1.106 26.064-2.894 11.449-3.174 12.373-2.975 22.342 3.523 7.477 4.873 13.07 6.29 21.062.229 9.835-7.458 9.032-12.472 20.818-2.957 10.546 8.513 21.758 11.219 34.869 11.9 13.912.728 29.58-4.447 26.094-21.485-2.818-13.775-16.994-15.942-28.594-17.725" fill="none" stroke="#fff" stroke-miterlimit="10" stroke-width="2"/>
</svg>
