<?xml version="1.0" encoding="utf-8"?>
<!-- Generator: Adobe Illustrator 23.0.1, SVG Export Plug-In . SVG Version: 6.00 Build 0)  -->
<svg version="1.1" id="Layer_1" xmlns="http://www.w3.org/2000/svg" xmlns:xlink="http://www.w3.org/1999/xlink" x="0px" y="0px"
	 viewBox="0 0 124.8 94.7" style="enable-background:new 0 0 124.8 94.7;" xml:space="preserve">
<style type="text/css">
	.st0{enable-background:new    ;}
	.st1{fill:#141414;}
</style>
<g>
	<g class="st0">
		<path class="st1" d="M64.5,80.7c0.2,0.6,0.4,1.1,0.5,1.7c0.3,1.3,0.5,2.4,0.5,3.3c0,0.9-0.2,1.6-0.7,2.2c-0.4,0.5-0.9,0.7-1.6,0.7
			c-0.7,0-1.3-0.2-1.9-0.7c-0.8-0.7-1.7-1.7-2.7-3.2c-0.9-1.5-1.6-2.9-2-4.3c-0.4-1.4-0.4-2.5,0.2-3.2c0.2-0.3,0.5-0.5,0.9-0.5
			c0.2,0,0.5,0,0.7,0c0.3,0,0.5,0.1,0.7,0.3c0.2,0.2,0.5,0.4,0.7,0.7c0.2,0.3,0.3,0.5,0.3,0.5c-0.1,0.1-0.2,0.2-0.4,0.1
			c-0.2-0.1-0.4-0.2-0.6-0.4c-0.4-0.2-0.6-0.4-0.8-0.4c-0.1,0-0.2,0-0.3,0c-0.5,0.6-0.5,1.6-0.1,2.8s1,2.5,1.9,3.8
			c0.8,1.3,1.6,2.1,2.2,2.6c0.9,0.7,1.5,0.7,2,0.1c0.3-0.4,0.5-0.9,0.6-1.4c0.1-0.5,0.1-1.1,0-1.8c-0.2-1.3-0.4-2.3-0.6-3.1
			c0-0.1-0.1-0.2-0.1-0.5c-0.1-0.3-0.1-0.4,0-0.5c0.1-0.2,0.2-0.2,0.4-0.1C64.2,79.7,64.3,80.1,64.5,80.7z"/>
		<path class="st1" d="M70.6,79.9c-0.1,0.2-0.2,0.5-0.3,0.7c-0.1,0.2-0.4,0.2-0.9,0c-0.5-0.2-1.1-0.5-1.9-1.1
			c-1.5-1.2-3.2-2.6-5.3-4.3c-2.1-1.7-3.6-2.9-4.7-3.8c-0.4-0.3-0.7-0.7-0.9-1c-0.2-0.4-0.2-0.7,0-1c0.1-0.1,0.2-0.1,0.3-0.1
			c0.1,0.1,0.4,0.2,0.7,0.5c0,0,0.1,0,0.1,0.1c0.1,0.1,0.2,0.2,0.4,0.3c3.3,2.9,6.5,5.7,9.8,8.3c0.4,0.3,0.9,0.6,1.6,0.8
			c0.6,0.2,0.9,0.3,1,0.3C70.6,79.5,70.6,79.7,70.6,79.9z"/>
		<path class="st1" d="M61.5,67.1c0,0-0.2,0.2-0.5,0.7c-0.2,0.2-0.4,0.4-0.8,0.5c-0.4,0.1-0.6,0.1-0.7,0c-0.1-0.1-0.2-0.3-0.3-0.5
			c0-0.2,0-0.4,0.1-0.6c0.2-0.1,0.5-0.2,0.7-0.2c0.2,0,0.4,0,0.7,0s0.4,0,0.5,0C61.4,67,61.5,67.1,61.5,67.1z M74.2,76.5
			c0,0.2-0.1,0.3-0.2,0.5c-0.2,0.2-0.6,0.1-1.2-0.3s-1.8-1.1-3.5-2.3c-1.1-0.8-2.2-1.5-3.2-2.3c-1-0.8-1.9-1.3-2.4-1.8
			c-0.1-0.1-0.2-0.2-0.3-0.3c0-0.1,0-0.2,0.1-0.4c0.2-0.3,0.5-0.4,0.8-0.3c0.3,0.1,0.8,0.5,1.5,1l2.3,1.8c1.3,1,2.4,1.8,3.3,2.4
			c0,0,0.5,0.3,1.4,0.8c0.6,0.3,1,0.6,1.2,0.7C74.2,76.1,74.2,76.3,74.2,76.5z"/>
		<path class="st1" d="M76.7,65.1c0.2,0.6,0.4,1.1,0.5,1.7c0.3,1.3,0.5,2.4,0.5,3.3c0,0.9-0.2,1.6-0.7,2.2c-0.4,0.5-0.9,0.7-1.6,0.7
			c-0.7,0-1.3-0.2-1.9-0.7c-0.8-0.7-1.7-1.7-2.7-3.2c-0.9-1.5-1.6-2.9-2-4.3c-0.4-1.4-0.4-2.5,0.2-3.2c0.2-0.3,0.5-0.5,0.9-0.5
			c0.2,0,0.5,0,0.7,0s0.5,0.1,0.7,0.3c0.2,0.2,0.5,0.4,0.7,0.7c0.2,0.3,0.3,0.5,0.3,0.5c-0.1,0.1-0.2,0.2-0.4,0.1
			c-0.2-0.1-0.4-0.2-0.6-0.4c-0.4-0.2-0.6-0.4-0.8-0.4c-0.1,0-0.2,0-0.3,0c-0.5,0.6-0.5,1.6-0.1,2.8c0.4,1.3,1,2.5,1.9,3.8
			c0.8,1.3,1.6,2.1,2.2,2.6c0.9,0.7,1.5,0.7,2,0.1c0.3-0.4,0.5-0.9,0.6-1.4c0.1-0.5,0.1-1.1,0-1.8c-0.2-1.3-0.4-2.3-0.6-3.1
			c0-0.1-0.1-0.2-0.1-0.5c-0.1-0.3-0.1-0.4,0-0.5c0.1-0.2,0.2-0.2,0.4-0.1C76.3,64.2,76.5,64.5,76.7,65.1z"/>
		<path class="st1" d="M80.5,51.3c0.1,0.3,0,0.6-0.1,0.7c-0.1,0.1-0.2,0.2-0.4,0.2c-0.2,0-0.3,0.1-0.4,0.1c-0.3,0.4-0.5,1.1-0.6,2.3
			c-0.1,1.2-0.2,2.4-0.1,3.7c0,1.3,0.1,2.4,0.2,3.2l0.4,0.3c1.2-0.6,2.6-1.4,4.1-2.2s2.5-1.4,2.9-1.8c0.2-0.2,0.3-0.3,0.5-0.5
			c0.2-0.2,0.3-0.3,0.3-0.4c0.1-0.1,0.2-0.2,0.3-0.3c0.1-0.1,0.1-0.1,0.2-0.1c0.2,0.1,0.2,0.4,0.2,0.7c0,0.4-0.2,0.8-0.6,1.3
			c-0.3,0.4-1,0.9-1.9,1.4c-0.9,0.5-2,1-3.3,1.6l-1.6,0.8c1.8,1.1,2.8,1.8,3,1.9c0.1,0.1,0.2,0.3,0.2,0.5c0,0.2-0.1,0.4-0.2,0.6
			c-0.1,0.1-0.3,0.1-0.7-0.1c-0.4-0.2-1.1-0.6-2.1-1.2l-1.3-0.8c-0.2,0.1-0.4,0.2-0.6,0.2c-0.2,0-0.4,0-0.5-0.1
			C78.1,63.2,78,63,78,62.5c-0.7-0.5-1.8-1.3-3.1-2.3c-1.4-1-2.4-1.7-3-2.1l-2.8-2c-0.4-0.3-0.6-0.6-0.8-0.9
			c-0.2-0.3-0.2-0.6,0.1-0.9c0.1-0.1,0.2-0.2,0.3-0.2c0.1,0,0.2,0,0.3,0.2c0.6,0.5,2,1.5,4.3,3.2c2.3,1.6,3.9,2.8,4.9,3.5
			c-0.5-5.1-0.2-8.3,0.8-9.7c0.2-0.3,0.4-0.5,0.7-0.6c0.2-0.1,0.4-0.1,0.5,0C80.3,50.7,80.5,51,80.5,51.3z"/>
		<path class="st1" d="M100.8,43.1c0,0.2,0,0.4-0.2,0.5c-0.1,0.1-0.2,0.2-0.4,0.3c-0.1,0-0.3,0-0.4-0.1l-1.3-1.1
			c-1.6-1.3-2.9-2.4-3.9-3.2c-1.5-1.2-2.6-1.9-3.4-2.1c-0.8-0.3-1.3-0.2-1.5,0c-0.5,0.6-0.1,2.1,1,4.6c1.2,2.4,2.6,5,4.1,7.6
			c0.1,0.2,0.2,0.4,0.3,0.7c0.1,0.2,0.1,0.4,0,0.5c-0.2,0.3-0.4,0.4-0.6,0.2c-0.8-0.6-2.3-1.8-4.6-3.4c-2.3-1.7-3.7-2.7-4.5-3.2
			c-2.4-1.7-4-2.7-4.6-3.1c-0.6-0.3-1-0.5-1-0.5c-0.1-0.1-0.2-0.3-0.1-0.4c0-0.2,0.2-0.4,0.3-0.6c0.1-0.2,0.7,0,1.6,0.6
			c0.9,0.6,2,1.3,3.3,2.3l0.6,0.4c0.4,0.3,1.6,1.2,3.5,2.7c1.9,1.5,3.4,2.6,4.3,3.3c-1-1.8-1.9-3.4-2.7-4.9
			c-0.8-1.5-1.4-2.9-1.9-4.4c-0.5-1.5-0.5-2.5,0-3.1c0.4-0.5,1.1-0.6,2.2-0.3c1.1,0.3,2.5,1.1,4.1,2.4c0.7,0.6,1.8,1.4,3.1,2.4
			l2.1,1.6C100.7,42.8,100.8,42.9,100.8,43.1z"/>
		<path class="st1" d="M103.3,28.7c0.2,0.2,0.6,0.8,1.1,1.7s0.9,2.1,1,3.3c0.1,1.2-0.2,2.4-1,3.4c-0.7,0.8-1.5,1.3-2.4,1.5
			c-1,0.2-2-0.2-3.1-1c-1-0.8-1.9-1.8-2.5-3.1c-0.6-1.3-1-2.5-1-3.8c0-1.3,0.3-2.3,0.9-3.1c0.4-0.5,0.8-0.8,1.3-1
			c0.5-0.2,0.9-0.1,1.3,0.2c0.5,0.4,0.7,1,0.7,1.8c0,0.9-0.1,1.8-0.4,2.9c-0.3,1.1-0.8,2.1-1.3,3.1c0.5,0.6,1,1.2,1.6,1.6
			c0.8,0.6,1.5,0.9,2.2,0.8c0.7,0,1.3-0.4,1.8-1.1c0.8-1,1.1-2.1,0.8-3.3c-0.2-1.2-0.6-2.4-1.2-3.5c0-0.1-0.1-0.2-0.2-0.4
			c-0.1-0.2-0.1-0.3-0.1-0.4C103,28.5,103.1,28.6,103.3,28.7z M97.7,27.9c-0.3,0.1-0.5,0.3-0.8,0.6c-0.4,0.5-0.6,1.1-0.6,1.8
			c0,0.7,0.1,1.4,0.3,2.1c0.2,0.7,0.5,1.2,0.8,1.6c0.4-0.7,0.7-1.4,1-2.3c0.2-0.9,0.4-1.7,0.4-2.4c0-0.7-0.1-1.1-0.3-1.3
			S98,27.7,97.7,27.9z"/>
		<path class="st1" d="M106.5,18.2c0,0.3,0,0.5-0.1,0.6c-0.1,0.1-0.2,0.1-0.3,0.2c-0.1,0-0.3,0-0.6,0c-0.2,0-0.4,0-0.6,0.1
			c-0.2,0.1-0.4,0.2-0.5,0.4c-0.3,0.4-0.2,1.3,0.3,2.7c0.5,1.4,1.3,3,2.3,4.9c0.3,0.2,0.7,0.5,1.2,0.8c0.5,0.3,0.8,0.6,1.1,0.7
			l0.8,0.6c0.2,0.1,0.3,0.3,0.4,0.5c0.1,0.2,0,0.4-0.1,0.6c-0.2,0.2-0.6,0.1-1.2-0.3c-0.7-0.4-1.6-1-2.7-1.9
			c-0.3-0.2-0.7-0.5-1.3-0.9c-0.5-0.4-1.2-0.9-2-1.5c-1.2-0.8-2-1.5-2.5-1.8c-0.3-0.2-0.3-0.5,0-0.9c0.2-0.2,0.4-0.3,0.6-0.2
			c0.2,0.1,0.6,0.4,1.1,0.8l3.1,2.4c-0.7-1.2-1.2-2.3-1.6-3.3c-0.4-1-0.6-1.9-0.6-2.7c0-0.7,0.1-1.3,0.3-1.6
			c0.2-0.3,0.5-0.5,0.8-0.7c0.3-0.2,0.7-0.2,1-0.2c0.3,0,0.6,0.1,0.8,0.2C106.4,17.7,106.4,17.9,106.5,18.2z"/>
		<path class="st1" d="M116.8,11.4c0.2,0.2,0.6,0.8,1.1,1.7c0.5,1,0.9,2.1,1,3.3c0.1,1.2-0.2,2.4-1,3.4c-0.7,0.8-1.5,1.3-2.4,1.5
			c-1,0.2-2-0.2-3.1-1c-1-0.8-1.9-1.8-2.5-3.1c-0.6-1.3-1-2.5-1-3.8c0-1.3,0.3-2.3,0.9-3.1c0.4-0.5,0.8-0.8,1.3-1
			c0.5-0.2,0.9-0.1,1.3,0.2c0.5,0.4,0.7,1,0.7,1.8c0,0.9-0.1,1.8-0.4,2.9c-0.3,1.1-0.8,2.1-1.3,3.1c0.5,0.6,1,1.2,1.6,1.6
			c0.8,0.6,1.5,0.9,2.2,0.8c0.7,0,1.3-0.4,1.8-1.1c0.8-1,1.1-2.1,0.8-3.3c-0.2-1.2-0.6-2.4-1.2-3.5c0-0.1-0.1-0.2-0.2-0.4
			c-0.1-0.2-0.1-0.3-0.1-0.4C116.5,11.2,116.6,11.3,116.8,11.4z M111.2,10.6c-0.3,0.1-0.5,0.3-0.8,0.6c-0.4,0.5-0.6,1.1-0.6,1.8
			c0,0.7,0.1,1.4,0.3,2.1c0.2,0.7,0.5,1.2,0.8,1.6c0.4-0.7,0.7-1.4,1-2.3c0.2-0.9,0.4-1.7,0.4-2.4c0-0.7-0.1-1.1-0.3-1.3
			C111.8,10.5,111.5,10.5,111.2,10.6z"/>
	</g>
	<g id="right-up-arrow" transform="matrix(0.766, 0.643, -0.643, 0.766, 557.707, 182.616)">
		<g id="Group_8" transform="translate(0 0)">
			<path id="Path_3" d="M-519.9,217.9c0.1,5.7,0.8,11.3,2.3,16.8c0.2,0.5,0.7,0.8,1.2,0.6c0.5-0.2,0.8-0.6,0.6-1.1
				c-1.2-4.8-1.9-9.7-2.1-14.7c-0.2-5-0.3-11.6,3.3-15.5c1.8-2,5.1-1.9,7.6-2c3.7-0.2,7.3-0.2,11,0.1c3.6,0.1,7.4,0.5,11,0.9
				c2,0.2,5.2,1.3,6.9,0.4c0.1-0.1,0.2-0.2,0.1-0.3c0,0,0,0,0,0c-1.3-1.7-5-1.6-7-1.9c-4.4-0.6-8.7-0.9-13.1-1.1
				c-5.3-0.2-13.6-1.3-17.9,2.7C-519.9,206.2-519.9,213.1-519.9,217.9z"/>
			<path id="Path_4" d="M-518.3,240.9c0.3,0.5,0.9,0.6,1.3,0.3c0.2-0.1,0.4-0.3,0.4-0.6c1-2.5,2.6-4.7,3.6-7.2
				c0.3-0.7-0.8-1.1-1.2-0.5c-1.2,1.9-2.3,3.8-3.4,5.7l-0.9-1.8c-0.4-0.9-0.4-1.9-0.9-2.8c-0.3-0.7-1.2-0.4-1.4,0.1
				C-521.4,236.3-519.5,239.2-518.3,240.9z"/>
		</g>
	</g>
</g>
</svg>
