<svg version="1.1" id="Layer_1" xmlns="http://www.w3.org/2000/svg" x="0" y="0" viewBox="0 0 124.8 94.7" xml:space="preserve">
  <style>
    .st1{fill:#141414}
  </style>
  <path class="st1" d="M64.5 80.7c.2.6.4 1.1.5 1.7.3 1.3.5 2.4.5 3.3 0 .9-.2 1.6-.7 2.2-.4.5-.9.7-1.6.7-.7 0-1.3-.2-1.9-.7-.8-.7-1.7-1.7-2.7-3.2-.9-1.5-1.6-2.9-2-4.3-.4-1.4-.4-2.5.2-3.2.2-.3.5-.5.9-.5h.7c.3 0 .5.1.7.3.2.2.5.4.7.7.2.3.3.5.3.5-.1.1-.2.2-.4.1s-.4-.2-.6-.4c-.4-.2-.6-.4-.8-.4H58c-.5.6-.5 1.6-.1 2.8s1 2.5 1.9 3.8c.8 1.3 1.6 2.1 2.2 2.6.9.7 1.5.7 2 .1.3-.4.5-.9.6-1.4.1-.5.1-1.1 0-1.8-.2-1.3-.4-2.3-.6-3.1 0-.1-.1-.2-.1-.5-.1-.3-.1-.4 0-.5.1-.2.2-.2.4-.1-.1.3 0 .7.2 1.3zM70.6 79.9c-.1.2-.2.5-.3.7-.1.2-.4.2-.9 0s-1.1-.5-1.9-1.1c-1.5-1.2-3.2-2.6-5.3-4.3-2.1-1.7-3.6-2.9-4.7-3.8-.4-.3-.7-.7-.9-1-.2-.4-.2-.7 0-1 .1-.1.2-.1.3-.1.1.1.4.2.7.5 0 0 .1 0 .1.1.1.1.2.2.4.3 3.3 2.9 6.5 5.7 9.8 8.3.4.3.9.6 1.6.8.6.2.9.3 1 .3.1-.1.1.1.1.3zM61.5 67.1s-.2.2-.5.7c-.2.2-.4.4-.8.5-.4.1-.6.1-.7 0-.1-.1-.2-.3-.3-.5 0-.2 0-.4.1-.6.2-.1.5-.2.7-.2h1.2c.2 0 .3.1.3.1zm12.7 9.4c0 .2-.1.3-.2.5-.2.2-.6.1-1.2-.3s-1.8-1.1-3.5-2.3c-1.1-.8-2.2-1.5-3.2-2.3-1-.8-1.9-1.3-2.4-1.8l-.3-.3c0-.1 0-.2.1-.4.2-.3.5-.4.8-.3.3.1.8.5 1.5 1l2.3 1.8c1.3 1 2.4 1.8 3.3 2.4 0 0 .5.3 1.4.8.6.3 1 .6 1.2.7.2.1.2.3.2.5zM76.7 65.1c.2.6.4 1.1.5 1.7.3 1.3.5 2.4.5 3.3 0 .9-.2 1.6-.7 2.2-.4.5-.9.7-1.6.7-.7 0-1.3-.2-1.9-.7-.8-.7-1.7-1.7-2.7-3.2-.9-1.5-1.6-2.9-2-4.3-.4-1.4-.4-2.5.2-3.2.2-.3.5-.5.9-.5h.7c.2 0 .5.1.7.3.2.2.5.4.7.7.2.3.3.5.3.5-.1.1-.2.2-.4.1s-.4-.2-.6-.4c-.4-.2-.6-.4-.8-.4h-.3c-.5.6-.5 1.6-.1 2.8.4 1.3 1 2.5 1.9 3.8.8 1.3 1.6 2.1 2.2 2.6.9.7 1.5.7 2 .1.3-.4.5-.9.6-1.4.1-.5.1-1.1 0-1.8-.2-1.3-.4-2.3-.6-3.1 0-.1-.1-.2-.1-.5-.1-.3-.1-.4 0-.5.1-.2.2-.2.4-.1-.2.4 0 .7.2 1.3zM80.5 51.3c.1.3 0 .6-.1.7-.1.1-.2.2-.4.2s-.3.1-.4.1c-.3.4-.5 1.1-.6 2.3-.1 1.2-.2 2.4-.1 3.7 0 1.3.1 2.4.2 3.2l.4.3c1.2-.6 2.6-1.4 4.1-2.2s2.5-1.4 2.9-1.8l.5-.5c.2-.2.3-.3.3-.4l.3-.3c.1-.1.1-.1.2-.1.2.1.2.4.2.7 0 .4-.2.8-.6 1.3-.3.4-1 .9-1.9 1.4-.9.5-2 1-3.3 1.6l-1.6.8c1.8 1.1 2.8 1.8 3 1.9.1.1.2.3.2.5s-.1.4-.2.6c-.1.1-.3.1-.7-.1-.4-.2-1.1-.6-2.1-1.2l-1.3-.8c-.2.1-.4.2-.6.2-.2 0-.4 0-.5-.1-.3-.1-.4-.3-.4-.8-.7-.5-1.8-1.3-3.1-2.3-1.4-1-2.4-1.7-3-2.1l-2.8-2c-.4-.3-.6-.6-.8-.9-.2-.3-.2-.6.1-.9.1-.1.2-.2.3-.2.1 0 .2 0 .3.2.6.5 2 1.5 4.3 3.2 2.3 1.6 3.9 2.8 4.9 3.5-.5-5.1-.2-8.3.8-9.7.2-.3.4-.5.7-.6.2-.1.4-.1.5 0 .1 0 .3.3.3.6zM100.8 43.1c0 .2 0 .4-.2.5-.1.1-.2.2-.4.3-.1 0-.3 0-.4-.1l-1.3-1.1c-1.6-1.3-2.9-2.4-3.9-3.2-1.5-1.2-2.6-1.9-3.4-2.1-.8-.3-1.3-.2-1.5 0-.5.6-.1 2.1 1 4.6 1.2 2.4 2.6 5 4.1 7.6.1.2.2.4.3.7.1.2.1.4 0 .5-.2.3-.4.4-.6.2-.8-.6-2.3-1.8-4.6-3.4-2.3-1.7-3.7-2.7-4.5-3.2-2.4-1.7-4-2.7-4.6-3.1l-1-.5c-.1-.1-.2-.3-.1-.4 0-.2.2-.4.3-.6.1-.2.7 0 1.6.6.9.6 2 1.3 3.3 2.3l.6.4c.4.3 1.6 1.2 3.5 2.7 1.9 1.5 3.4 2.6 4.3 3.3-1-1.8-1.9-3.4-2.7-4.9-.8-1.5-1.4-2.9-1.9-4.4-.5-1.5-.5-2.5 0-3.1.4-.5 1.1-.6 2.2-.3s2.5 1.1 4.1 2.4c.7.6 1.8 1.4 3.1 2.4l2.1 1.6c.5 0 .6.1.6.3zM103.3 28.7c.2.2.6.8 1.1 1.7s.9 2.1 1 3.3c.1 1.2-.2 2.4-1 3.4-.7.8-1.5 1.3-2.4 1.5-1 .2-2-.2-3.1-1-1-.8-1.9-1.8-2.5-3.1-.6-1.3-1-2.5-1-3.8 0-1.3.3-2.3.9-3.1.4-.5.8-.8 1.3-1 .5-.2.9-.1 1.3.2.5.4.7 1 .7 1.8 0 .9-.1 1.8-.4 2.9-.3 1.1-.8 2.1-1.3 3.1.5.6 1 1.2 1.6 1.6.8.6 1.5.9 2.2.8.7 0 1.3-.4 1.8-1.1.8-1 1.1-2.1.8-3.3-.2-1.2-.6-2.4-1.2-3.5 0-.1-.1-.2-.2-.4s-.1-.3-.1-.4c.2.2.3.3.5.4zm-5.6-.8c-.3.1-.5.3-.8.6-.4.5-.6 1.1-.6 1.8s.1 1.4.3 2.1c.2.7.5 1.2.8 1.6.4-.7.7-1.4 1-2.3.2-.9.4-1.7.4-2.4s-.1-1.1-.3-1.3-.5-.3-.8-.1zM106.5 18.2c0 .3 0 .5-.1.6-.1.1-.2.1-.3.2h-.6c-.2 0-.4 0-.6.1-.2.1-.4.2-.5.4-.3.4-.2 1.3.3 2.7.5 1.4 1.3 3 2.3 4.9.3.2.7.5 1.2.8.5.3.8.6 1.1.7l.8.6c.2.1.3.3.4.5.1.2 0 .4-.1.6-.2.2-.6.1-1.2-.3-.7-.4-1.6-1-2.7-1.9-.3-.2-.7-.5-1.3-.9-.5-.4-1.2-.9-2-1.5-1.2-.8-2-1.5-2.5-1.8-.3-.2-.3-.5 0-.9.2-.2.4-.3.6-.2.2.1.6.4 1.1.8l3.1 2.4c-.7-1.2-1.2-2.3-1.6-3.3-.4-1-.6-1.9-.6-2.7 0-.7.1-1.3.3-1.6.2-.3.5-.5.8-.7.3-.2.7-.2 1-.2.3 0 .6.1.8.2.2 0 .2.2.3.5zM116.8 11.4c.2.2.6.8 1.1 1.7.5 1 .9 2.1 1 3.3.1 1.2-.2 2.4-1 3.4-.7.8-1.5 1.3-2.4 1.5-1 .2-2-.2-3.1-1-1-.8-1.9-1.8-2.5-3.1-.6-1.3-1-2.5-1-3.8 0-1.3.3-2.3.9-3.1.4-.5.8-.8 1.3-1 .5-.2.9-.1 1.3.2.5.4.7 1 .7 1.8 0 .9-.1 1.8-.4 2.9-.3 1.1-.8 2.1-1.3 3.1.5.6 1 1.2 1.6 1.6.8.6 1.5.9 2.2.8.7 0 1.3-.4 1.8-1.1.8-1 1.1-2.1.8-3.3-.2-1.2-.6-2.4-1.2-3.5 0-.1-.1-.2-.2-.4s-.1-.3-.1-.4c.2.2.3.3.5.4zm-5.6-.8c-.3.1-.5.3-.8.6-.4.5-.6 1.1-.6 1.8s.1 1.4.3 2.1c.2.7.5 1.2.8 1.6.4-.7.7-1.4 1-2.3.2-.9.4-1.7.4-2.4s-.1-1.1-.3-1.3c-.2-.2-.5-.2-.8-.1z"/>
  <g id="right-up-arrow" transform="rotate(40 27.94 857.184)">
    <g id="Group_8">
      <path id="Path_3" d="M-519.9 217.9c.1 5.7.8 11.3 2.3 16.8.2.5.7.8 1.2.6.5-.2.8-.6.6-1.1-1.2-4.8-1.9-9.7-2.1-14.7-.2-5-.3-11.6 3.3-15.5 1.8-2 5.1-1.9 7.6-2 3.7-.2 7.3-.2 11 .1 3.6.1 7.4.5 11 .9 2 .2 5.2 1.3 6.9.4.1-.1.2-.2.1-.3-1.3-1.7-5-1.6-7-1.9-4.4-.6-8.7-.9-13.1-1.1-5.3-.2-13.6-1.3-17.9 2.7-3.9 3.4-3.9 10.3-3.9 15.1z"/>
      <path id="Path_4" d="M-518.3 240.9c.3.5.9.6 1.3.3.2-.1.4-.3.4-.6 1-2.5 2.6-4.7 3.6-7.2.3-.7-.8-1.1-1.2-.5-1.2 1.9-2.3 3.8-3.4 5.7l-.9-1.8c-.4-.9-.4-1.9-.9-2.8-.3-.7-1.2-.4-1.4.1-.6 2.2 1.3 5.1 2.5 6.8z"/>
    </g>
  </g>
</svg>
