<svg xmlns="http://www.w3.org/2000/svg" width="53.09" height="53.135" viewBox="0 0 53.09 53.135"><defs><style>.a{fill:none;stroke:#fff;stroke-width:1.5px;}</style></defs><g transform="translate(0.75 0.794)"><path class="a" d="M7.439,181.008H2.011A1.51,1.51,0,0,0,.5,182.519a10.651,10.651,0,0,0,7.448,10.021c-1.456-4.709-1.7-8.23-.509-11.533Zm0,0" transform="translate(-0.5 -162.769)"/><path class="a" d="M444.524,181.008h-5.46c1.185,3.374.954,6.887-.475,11.532a10.65,10.65,0,0,0,7.446-10.021,1.511,1.511,0,0,0-1.511-1.511Zm0,0" transform="translate(-394.446 -162.769)"/><path class="a" d="M333.6.161a1.506,1.506,0,0,0-1.745.283c-.877.877-.3,1.715.233,2.778a8.364,8.364,0,0,1,.249,6.2,13.564,13.564,0,0,1,8.625,5.439,12.75,12.75,0,0,0-.236-5.688A14.6,14.6,0,0,0,333.6.161Zm0,0" transform="translate(-298.061 0)"/><path class="a" d="M93.442,9.438a8.366,8.366,0,0,1,.25-6.2c.532-1.063,1.11-1.9.233-2.778A1.516,1.516,0,0,0,92.18.179a14.6,14.6,0,0,0-7.124,9.007,12.774,12.774,0,0,0-.239,5.689,13.476,13.476,0,0,1,8.625-5.437Zm0,0" transform="translate(-76.13 -0.019)"/><path class="a" d="M115.551,121.14a11.281,11.281,0,0,0-3.618.22,15.039,15.039,0,0,1-7.173-.009,10.92,10.92,0,0,0-3.6-.208,10.5,10.5,0,0,0-8.217,5.6c-2.136,4.061-1.282,8.519,1.945,16.51a9.786,9.786,0,0,1,7.434-4.047,14.385,14.385,0,0,1,6.045,1.4,14.481,14.481,0,0,1,6.046-1.4c2.7,0,5.338,1.516,7.411,4.089,3.545-8.782,3.915-12.657,1.972-16.543A10.517,10.517,0,0,0,115.551,121.14Zm-13.229,15.048a1.511,1.511,0,1,1,1.511-1.511A1.511,1.511,0,0,1,102.322,136.188Zm12.091,0a1.511,1.511,0,1,1,1.511-1.511A1.511,1.511,0,0,1,114.413,136.188Zm0,0" transform="translate(-82.572 -108.881)"/><path class="a" d="M141.144,331a11.392,11.392,0,0,0-4.639,1.063,2.923,2.923,0,0,1-2.813,0A11.392,11.392,0,0,0,129.053,331c-3.977,0-7.557,5.446-7.557,9.169,0,3.581,3.386,9.069,7.557,9.069,2.55,0,6.045-2.146,6.045-2.146s3.5,2.146,6.046,2.146c4.171,0,7.557-5.488,7.557-9.069,0-3.7-3.531-9.169-7.557-9.169Zm-9.068,10.681a1.511,1.511,0,1,1-3.023,0v-3.023a1.511,1.511,0,1,1,3.023,0Zm9.068,0a1.511,1.511,0,1,1-3.023,0v-3.023a1.511,1.511,0,1,1,3.023,0Zm0,0" transform="translate(-109.304 -297.651)"/></g></svg>