<svg xmlns="http://www.w3.org/2000/svg" width="53.09" height="53.135">
  <defs>
    <style>
      .a{fill:none;stroke:#fff;stroke-width:1.5px}
    </style>
  </defs>
  <path class="a" d="M7.689 19.033H2.261A1.51 1.51 0 00.75 20.544a10.651 10.651 0 007.448 10.021c-1.456-4.709-1.7-8.23-.509-11.533zm0 0M50.828 19.033h-5.46c1.185 3.374.954 6.887-.475 11.532a10.65 10.65 0 007.446-10.021 1.511 1.511 0 00-1.511-1.511zm0 0M36.289.955a1.506 1.506 0 00-1.745.283c-.877.877-.3 1.715.233 2.778a8.364 8.364 0 01.249 6.2 13.564 13.564 0 018.625 5.439 12.75 12.75 0 00-.236-5.688A14.6 14.6 0 0036.289.955zm0 0M18.062 10.213a8.366 8.366 0 01.25-6.2c.532-1.063 1.11-1.9.233-2.778A1.516 1.516 0 0016.8.954a14.6 14.6 0 00-7.124 9.007 12.774 12.774 0 00-.239 5.689 13.476 13.476 0 018.625-5.437zm0 0M33.729 13.053a11.281 11.281 0 00-3.618.22 15.039 15.039 0 01-7.173-.009 10.92 10.92 0 00-3.6-.208 10.5 10.5 0 00-8.217 5.6c-2.136 4.061-1.282 8.519 1.945 16.51a9.786 9.786 0 017.434-4.047 14.385 14.385 0 016.045 1.4 14.481 14.481 0 016.046-1.4c2.7 0 5.338 1.516 7.411 4.089 3.545-8.782 3.915-12.657 1.972-16.543a10.517 10.517 0 00-8.245-5.612zM20.5 28.101a1.511 1.511 0 111.511-1.511 1.511 1.511 0 01-1.511 1.511zm12.091 0a1.511 1.511 0 111.511-1.511 1.511 1.511 0 01-1.511 1.511zm0 0"/>
  <path class="a" d="M32.59 34.143a11.392 11.392 0 00-4.639 1.063 2.923 2.923 0 01-2.813 0 11.392 11.392 0 00-4.639-1.063c-3.977 0-7.557 5.446-7.557 9.169 0 3.581 3.386 9.069 7.557 9.069 2.55 0 6.045-2.146 6.045-2.146s3.5 2.146 6.046 2.146c4.171 0 7.557-5.488 7.557-9.069 0-3.7-3.531-9.169-7.557-9.169zm-9.068 10.681a1.512 1.512 0 11-3.023 0v-3.023a1.512 1.512 0 113.023 0zm9.068 0a1.512 1.512 0 11-3.023 0v-3.023a1.512 1.512 0 113.023 0zm0 0"/>
</svg>
