<svg xmlns="http://www.w3.org/2000/svg" viewBox="0 0 48.94 47.32"><defs><style>.cls-1{fill:#3a7132;}.cls-2{fill:#fefefe;}.cls-3{fill:#f4da36;}.cls-4{fill:#fff;}</style></defs><title>Asset 2</title><g id="Layer_2" data-name="Layer 2"><g id="Layer_1-2" data-name="Layer 1"><path class="cls-1" d="M25.87,0a1.51,1.51,0,0,0,.63.09,24.19,24.19,0,0,1,7.21,1.67,24.12,24.12,0,0,1,10.17,7.5,23.06,23.06,0,0,1,.19,28.57,24.14,24.14,0,0,1-8.18,6.77,25,25,0,0,1-7.72,2.46,25.62,25.62,0,0,1-5.74.18A25.12,25.12,0,0,1,15,45.5a24.52,24.52,0,0,1-7.32-4.6,23.77,23.77,0,0,1-5.2-6.79,23.05,23.05,0,0,1-1-18.56A23,23,0,0,1,6,8.11,24.53,24.53,0,0,1,18.44.73a25.17,25.17,0,0,1,4.4-.68c.08,0,.18,0,.23,0Zm-1.6,46.67a26.55,26.55,0,0,0,4.3-.35,24,24,0,0,0,9.25-3.61,23.13,23.13,0,0,0,8-8.84A22.2,22.2,0,0,0,48.17,26a22.51,22.51,0,0,0-1.84-11.4,22.7,22.7,0,0,0-4.69-6.81,23.65,23.65,0,0,0-7-4.85A24,24,0,0,0,26.42.75a24.32,24.32,0,0,0-9.25,1A23.54,23.54,0,0,0,5.08,10.32,22.1,22.1,0,0,0,.74,21.78a21.69,21.69,0,0,0,.66,7.57,22.61,22.61,0,0,0,8.86,12.76A23.87,23.87,0,0,0,24.27,46.67Z"/><path class="cls-2" d="M24.27,46.67a23.87,23.87,0,0,1-14-4.56A22.61,22.61,0,0,1,1.4,29.35a21.69,21.69,0,0,1-.66-7.57A22.1,22.1,0,0,1,5.08,10.32,23.54,23.54,0,0,1,17.17,1.77a24.32,24.32,0,0,1,9.25-1,24,24,0,0,1,8.27,2.14,23.65,23.65,0,0,1,7,4.85,22.7,22.7,0,0,1,4.69,6.81A22.51,22.51,0,0,1,48.17,26a22.2,22.2,0,0,1-2.36,7.92,23.13,23.13,0,0,1-8,8.84,24,24,0,0,1-9.25,3.61A26.55,26.55,0,0,1,24.27,46.67ZM34.89,41.3a20.42,20.42,0,1,0-21.78-.6,20.07,20.07,0,0,0,13.47,3.37,19.34,19.34,0,0,0,7.53-2.33c-.44-.12-.88-.2-1.31-.3a6.69,6.69,0,0,1-1.8-.6,4.78,4.78,0,0,1-2-2.13,14.7,14.7,0,0,1-.71-1.62.54.54,0,0,1,.34,0,22.63,22.63,0,0,1,2.53,1,6.06,6.06,0,0,1,1.54.94,5.7,5.7,0,0,1,1.37,2,1.51,1.51,0,0,0,.37.62c.19-.11.2-.16.11-.39A7,7,0,0,0,34,40.14a1.33,1.33,0,0,1-.15-.79c.18,0,.26,0,.26-.19.16,0,.16.16.2.25s.17,0,.26,0a2.25,2.25,0,0,1,0,1.18c.09,0,.16-.1.17-.17a7,7,0,0,0,.23-.78,7.77,7.77,0,0,1,.8-2.57A5.75,5.75,0,0,1,37,35.6a4.33,4.33,0,0,1,1.32-.76,19.07,19.07,0,0,0,2.47-1.05s0,0,.07,0a5.33,5.33,0,0,1-.3,1.49,3.24,3.24,0,0,1-1.21,1.78,14.07,14.07,0,0,1-1.27.79,8.87,8.87,0,0,0-2.85,2.27A1.37,1.37,0,0,0,34.89,41.3Z"/><path class="cls-1" d="M34.89,41.3a1.37,1.37,0,0,1,.34-1.17,8.87,8.87,0,0,1,2.85-2.27,14.07,14.07,0,0,0,1.27-.79,3.24,3.24,0,0,0,1.21-1.78,5.33,5.33,0,0,0,.3-1.49s-.06,0-.07,0a19.07,19.07,0,0,1-2.47,1.05A4.33,4.33,0,0,0,37,35.6a5.75,5.75,0,0,0-1.19,1.49,7.77,7.77,0,0,0-.8,2.57,7,7,0,0,1-.23.78c0,.07-.08.12-.17.17a2.25,2.25,0,0,0,0-1.18c-.09,0-.2.16-.26,0s0-.22-.2-.25c0,.16-.08.24-.26.19a1.33,1.33,0,0,0,.15.79,7,7,0,0,1,.53,1.06c.09.23.08.28-.11.39a1.51,1.51,0,0,1-.37-.62,5.7,5.7,0,0,0-1.37-2,6.06,6.06,0,0,0-1.54-.94,22.63,22.63,0,0,0-2.53-1,.54.54,0,0,0-.34,0A14.7,14.7,0,0,0,29,38.71a4.78,4.78,0,0,0,2,2.13,6.69,6.69,0,0,0,1.8.6c.43.1.87.18,1.31.3a19.34,19.34,0,0,1-7.53,2.33A20.07,20.07,0,0,1,13.11,40.7a20.45,20.45,0,1,1,21.78.6ZM28.31,16.07l.22.15a2.09,2.09,0,0,0,.76.34,3.2,3.2,0,0,0,2.15-.36,3.25,3.25,0,0,0,1.42-1.12.91.91,0,0,0-.47-1.42,1.92,1.92,0,0,0-.74-.15H28.58a.57.57,0,0,0-.36.11,8.64,8.64,0,0,0-1.42,1.22,5.18,5.18,0,0,0-1.47,4,6.83,6.83,0,0,0,1,3,4.42,4.42,0,0,0,.55.8,5.27,5.27,0,0,1,.57-3.42,8.31,8.31,0,0,0,.62-1.73C28.17,17,28.24,16.57,28.31,16.07Zm-7.93,0a.13.13,0,0,1,.06.13,9.86,9.86,0,0,0,.92,3.17,4.92,4.92,0,0,1,.52,3s0,.09.05.1.09-.07.12-.12a7.48,7.48,0,0,0,1-1.86,5.33,5.33,0,0,0,0-3.91,6.85,6.85,0,0,0-2.64-3.07.43.43,0,0,0-.25,0H17.1a1.89,1.89,0,0,0-.93.23.82.82,0,0,0-.44,1,1.56,1.56,0,0,0,.57.85,4.74,4.74,0,0,0,1.88,1,2.72,2.72,0,0,0,1.33,0A2.69,2.69,0,0,0,20.38,16.08Zm.23-3.19c2,.78,3,2.44,3.75,4.35.79-1.91,1.78-3.55,3.76-4.33a2.39,2.39,0,0,0-1.46-1.74,1.62,1.62,0,0,0-1.39.13,1.43,1.43,0,0,1-1.78,0,1,1,0,0,0-.28-.13A2.08,2.08,0,0,0,20.61,12.89Zm.22,22.63.05-.06c-.4-.13-.48-.49-.63-.79-.5-1-1-2-1.48-3-.12-.26-.36-.51.07-.78H17.12c.32.23.17.46.06.7-.47,1-.93,2-1.41,2.93-.17.34-.25.75-.62,1H16.7c-.27-.31-.27-.31-.09-.69,0-.09.1-.18.13-.27a.27.27,0,0,1,.3-.2,14.61,14.61,0,0,0,1.48,0,.55.55,0,0,1,.65.42c.09.25.34.5-.11.75ZM33,31.8,33,31.73H30c-.26,0-.54.07-.73-.28v1.18c.15-.26.39-.21.61-.21h1.17a.66.66,0,0,1,.36,0l-.19.25-1.89,2.49c-.07.1-.16.2-.09.36h3.13a.63.63,0,0,1,.61.27V34.63c-.14.07-.15.23-.31.23H30.75C31.52,33.8,32.32,32.82,33,31.8Zm-11.29.85c.14-.08.16-.25.32-.25h1.81a.36.36,0,0,1-.12.22l-1.93,2.55c-.08.11-.17.21-.08.37h3.14c.21,0,.43,0,.57.27V34.61c-.12.1-.15.23-.3.23H23.22c.07-.1.11-.17.16-.23l1.94-2.56c.07-.09.18-.17.12-.31a.45.45,0,0,0-.28,0H22.47c-.26,0-.54.06-.73-.22ZM27,23.38a2.49,2.49,0,0,1-1.65.74,8.58,8.58,0,0,1-1.52,0,2.92,2.92,0,0,1-2-.72h0a1.77,1.77,0,0,0,1,1.83,4.06,4.06,0,0,0,2.28.29,2.65,2.65,0,0,0,1.24-.41A1.78,1.78,0,0,0,27,23.38Zm-.31,8.35-.07.05c.34.11.28.36.28.59v2.54c0,.23,0,.46-.22.62H28c-.26-.17-.19-.41-.19-.64V32.38c0-.23-.07-.48.2-.65Z"/><path class="cls-2" d="M28.31,16.07c-.07.5-.14,1-.25,1.42a8.31,8.31,0,0,1-.62,1.73,5.27,5.27,0,0,0-.57,3.42,4.42,4.42,0,0,1-.55-.8,6.83,6.83,0,0,1-1-3,5.18,5.18,0,0,1,1.47-4,8.64,8.64,0,0,1,1.42-1.22.57.57,0,0,1,.36-.11h3.07a1.92,1.92,0,0,1,.74.15.91.91,0,0,1,.47,1.42,3.25,3.25,0,0,1-1.42,1.12,3.2,3.2,0,0,1-2.15.36,2.09,2.09,0,0,1-.76-.34Z"/><path class="cls-2" d="M20.38,16.08a2.69,2.69,0,0,1-.87.46,2.72,2.72,0,0,1-1.33,0,4.74,4.74,0,0,1-1.88-1,1.56,1.56,0,0,1-.57-.85.82.82,0,0,1,.44-1,1.89,1.89,0,0,1,.93-.23h3.07a.43.43,0,0,1,.25,0,6.85,6.85,0,0,1,2.64,3.07,5.33,5.33,0,0,1,0,3.91,7.48,7.48,0,0,1-1,1.86c0,.05-.05.11-.12.12s-.05-.06-.05-.1a4.92,4.92,0,0,0-.52-3,9.86,9.86,0,0,1-.92-3.17A.13.13,0,0,0,20.38,16.08Z"/><path class="cls-2" d="M20.61,12.89a2.08,2.08,0,0,1,2.6-1.72,1,1,0,0,1,.28.13,1.43,1.43,0,0,0,1.78,0,1.62,1.62,0,0,1,1.39-.13,2.39,2.39,0,0,1,1.46,1.74c-2,.78-3,2.42-3.76,4.33C23.59,15.33,22.59,13.67,20.61,12.89Z"/><path class="cls-3" d="M20.83,35.52H19.06c.45-.25.2-.5.11-.75a.55.55,0,0,0-.65-.42,14.61,14.61,0,0,1-1.48,0,.27.27,0,0,0-.3.2c0,.09-.09.18-.13.27-.18.38-.18.38.09.69H15.15c.37-.24.45-.65.62-1,.48-1,.94-2,1.41-2.93.11-.24.26-.47-.06-.7h1.72c-.43.27-.19.52-.07.78.49,1,1,2,1.48,3,.15.3.23.66.63.79Zm-2.17-1.83-.75-1.63-.76,1.63Z"/><path class="cls-3" d="M33,31.8c-.71,1-1.51,2-2.28,3.05h1.94c.16,0,.17-.16.31-.23v1.19a.63.63,0,0,0-.61-.27H29.26c-.07-.16,0-.26.09-.36l1.89-2.49.19-.25a.66.66,0,0,0-.36,0H29.9c-.22,0-.46,0-.61.21V31.44c.19.35.47.28.73.28H33Z"/><path class="cls-3" d="M21.74,32.65V31.5c.19.28.47.22.73.22h2.69a.45.45,0,0,1,.28,0c.06.14-.05.22-.12.31l-1.94,2.56c-.05.06-.09.13-.16.23h1.93c.15,0,.18-.13.3-.23v1.21c-.14-.31-.36-.27-.57-.27H21.74c-.09-.16,0-.26.08-.37l1.93-2.55a.36.36,0,0,0,.12-.22H22.06C21.9,32.4,21.88,32.57,21.74,32.65Z"/><path class="cls-2" d="M27,23.38a1.78,1.78,0,0,1-.76,1.77,2.65,2.65,0,0,1-1.24.41,4.06,4.06,0,0,1-2.28-.29,1.77,1.77,0,0,1-1-1.83h0a2.92,2.92,0,0,0,2,.72,8.58,8.58,0,0,0,1.52,0A2.49,2.49,0,0,0,27,23.38Z"/><path class="cls-3" d="M26.67,31.73H28c-.27.17-.2.42-.2.65v2.51c0,.23-.07.47.19.64H26.66c.24-.16.22-.39.22-.62V32.37c0-.23.06-.48-.28-.59Z"/><path class="cls-1" d="M18.66,33.69H17.15l.76-1.63Z"/><path class="cls-4" d="M10.93,10.54a1.1,1.1,0,0,1,.71-.37.83.83,0,0,1,.41.07,1,1,0,0,1,.29.19.89.89,0,0,1,.18,1,1.46,1.46,0,0,1-.28.4,1.13,1.13,0,0,1-.71.36.91.91,0,0,1-.4-.06.84.84,0,0,1-.29-.2.77.77,0,0,1-.24-.44.84.84,0,0,1,.06-.56A1.31,1.31,0,0,1,10.93,10.54Zm.13.12a.9.9,0,0,0-.29.61.67.67,0,0,0,.22.51.66.66,0,0,0,.52.21,1,1,0,0,0,.89-.9.69.69,0,0,0-.21-.5.65.65,0,0,0-.52-.22.62.62,0,0,0-.31.07A1.43,1.43,0,0,0,11.06,10.66Z"/><path class="cls-4" d="M13.28,10l.31.4.06.05a.12.12,0,0,0,.08,0l0,0-.28.21,0,0a.11.11,0,0,0,0-.06.11.11,0,0,0,0-.07l-.71-.93s0-.05-.06-.05h-.07l0,0L13.28,9a1,1,0,0,1,.2-.13.53.53,0,0,1,.17,0A.37.37,0,0,1,14,9a.31.31,0,0,1,.07.27.45.45,0,0,1-.17.28l.64.24h.06l.06,0,0,0-.29.22,0,0s0,0,0-.06l-.06,0-.59-.21Zm-.08-.12.44-.33.15-.13a.3.3,0,0,0,.07-.1.21.21,0,0,0,0-.22.21.21,0,0,0-.2-.1.52.52,0,0,0-.28.13l-.45.34Z"/><path class="cls-4" d="M15.8,7.51v.34h0a.08.08,0,0,0,0-.06s-.06,0-.15,0a.89.89,0,0,0-.43.11.69.69,0,0,0-.31.37.59.59,0,0,0,.05.5.53.53,0,0,0,.38.27.66.66,0,0,0,.5-.09A.79.79,0,0,0,16,8.73a.59.59,0,0,0,.14-.22L16,8.28l-.29.16s-.05,0-.05.06a.08.08,0,0,0,0,.07l0,0-.16-.27h0l.07,0,.07,0,.5-.29,0,0s0,0,0,.07,0,0,0,.07l.08.13a.1.1,0,0,0,.05.06h.07l0,0a1.22,1.22,0,0,1-.53.65.84.84,0,0,1-.6.12.65.65,0,0,1-.29-.11.83.83,0,0,1-.22-.24.73.73,0,0,1-.1-.46A.77.77,0,0,1,14.8,8a.87.87,0,0,1,.27-.23.94.94,0,0,1,.28-.12l.34,0h.05s0,0,0-.07Z"/><path class="cls-4" d="M17.81,7.59l-.7.31v.26a.35.35,0,0,0,0,.07s0,0,.09,0v0l-.33.14v0a.19.19,0,0,0,.06-.07.53.53,0,0,0,0-.14L17,7a.2.2,0,0,0,0-.12s0,0-.08,0v0l.39-.17v0s-.05,0,0,.07a.51.51,0,0,0,.11.11l.82.74a.5.5,0,0,0,.13.1.14.14,0,0,0,.09,0l0,0-.35.15,0,0s0,0,0-.07L18,7.77Zm-.11-.1L17.13,7l0,.78Z"/><path class="cls-4" d="M18.76,6.38l.3,1s0,.06,0,.07l.07,0v0l-.3.09v0a.13.13,0,0,0,.05-.06s0,0,0-.07l-.32-1.12s0-.06,0-.07h-.07v0l.46-.13v0s-.06,0-.05.08a.23.23,0,0,0,.07.08L20.05,7l-.28-1a.24.24,0,0,0,0-.07h-.08v0L20,5.79v0s0,0,0,0a.11.11,0,0,0,0,.08l.32,1.11a.14.14,0,0,0,0,.07l.08,0v0L20,7.3v0s.06,0,.05-.07,0,0-.09-.07Z"/><path class="cls-4" d="M21.1,6.9l-.21-1.14s0-.06,0-.07,0,0-.07,0v0l.34-.06v0a.1.1,0,0,0-.06.05s0,0,0,.08l.21,1.14a.24.24,0,0,0,0,.07l.07,0V7L21,7.06V7s.05,0,.06,0Z"/><path class="cls-4" d="M23.5,5.39l-.13.3,0,0a.11.11,0,0,0,0,0s0,0-.06-.06a.82.82,0,0,0-.5-.09.77.77,0,0,0-.45.19.56.56,0,0,0-.16.46.55.55,0,0,0,.27.46.66.66,0,0,0,.44.1.71.71,0,0,0,.48-.21.16.16,0,0,0,.07-.1.15.15,0,0,0,0-.06l0,0,.22.24,0,0-.07,0,0,0a1.37,1.37,0,0,1-.3.21,1.27,1.27,0,0,1-.36.08.85.85,0,0,1-.58-.13.8.8,0,0,1-.2-.21A.7.7,0,0,1,22,6.15a.71.71,0,0,1,.23-.6,1,1,0,0,1,.57-.23,1.31,1.31,0,0,1,.61.1h0s0,0,.06,0Z"/><path class="cls-4" d="M25.78,6l-.07.66a.13.13,0,0,0,0,.06l.06,0v0l-.37,0v0a.08.08,0,0,0,.07,0l0-.06.15-1.49s0,0,0-.06a.09.09,0,0,0-.06,0V5l.93.1a1.54,1.54,0,0,1,.3,0,.66.66,0,0,1,.19.09.45.45,0,0,1,.13.17.52.52,0,0,1-.11.54.51.51,0,0,1-.23.12,2.36,2.36,0,0,1-.38,0Zm0-.17.67.07h.22a.31.31,0,0,0,.13,0A.29.29,0,0,0,27,5.62a.27.27,0,0,0-.11-.27.23.23,0,0,0-.12-.06l-.22,0-.66-.07Z"/><path class="cls-4" d="M28,6.45l-.12.5a.11.11,0,0,0,0,.08s0,0,.06,0v0L27.63,7V7l.07,0a.24.24,0,0,0,0-.07L28,5.78a.11.11,0,0,0,0-.08s0,0-.06,0v0l.84.19.23.08a.5.5,0,0,1,.14.1.38.38,0,0,1,.08.34.36.36,0,0,1-.17.24.53.53,0,0,1-.32,0l.22.65,0,0,.06,0v0l-.35-.08v0s.05,0,.05,0,0,0,0-.06l-.21-.6Zm0-.13.54.12.2,0h.12a.21.21,0,0,0,.14-.17.24.24,0,0,0,0-.22A.49.49,0,0,0,28.75,6l-.56-.13Z"/><path class="cls-4" d="M30.91,6.43a.93.93,0,0,1,.51.41.71.71,0,0,1,0,.62.66.66,0,0,1-.26.33.81.81,0,0,1-.82.06.88.88,0,0,1-.52-.41.67.67,0,0,1,0-.6.71.71,0,0,1,.26-.35.76.76,0,0,1,.44-.13A1.15,1.15,0,0,1,30.91,6.43Zm-.06.14a.67.67,0,0,0-.54,0A.54.54,0,0,0,30,6.9a.58.58,0,0,0,0,.45.65.65,0,0,0,.41.36.66.66,0,0,0,.55,0,.59.59,0,0,0,.29-.77A.74.74,0,0,0,30.85,6.57Z"/><path class="cls-4" d="M31.92,8.31l.54-1a.07.07,0,0,0,0-.13l0,0,.65.34a1.24,1.24,0,0,1,.35.27.65.65,0,0,1,.12.39,1,1,0,0,1-.1.37.81.81,0,0,1-.3.31.56.56,0,0,1-.34.09,1.36,1.36,0,0,1-.42-.14l-.65-.35,0,0a.11.11,0,0,0,.08,0Zm.16.09.4.22a.69.69,0,0,0,.37.11.41.41,0,0,0,.28-.12.79.79,0,0,0,.18-.22A.64.64,0,0,0,33.39,8a.45.45,0,0,0-.11-.19A.9.9,0,0,0,33,7.58l-.4-.21Z"/><path class="cls-4" d="M34.62,8.54l-.43.61a1,1,0,0,0-.12.2.15.15,0,0,0,0,.13.57.57,0,0,0,.27.31.59.59,0,0,0,.41.15.19.19,0,0,0,.1,0A.8.8,0,0,0,35,9.71l.43-.61s0,0,0-.07l0-.07,0,0,.26.18,0,0s0,0-.07,0a.13.13,0,0,0-.06,0l-.45.64a.82.82,0,0,1-.19.21.37.37,0,0,1-.29.05.9.9,0,0,1-.38-.19.79.79,0,0,1-.36-.42.35.35,0,0,1,0-.18A1,1,0,0,1,34,9.07l.45-.64a.1.1,0,0,0,0-.14l0,0,.29.2,0,0h-.08S34.65,8.51,34.62,8.54Z"/><path class="cls-4" d="M37.42,10.77l-.31.09v0l0,0a.1.1,0,0,0,0-.08,1,1,0,0,0-.28-.44.71.71,0,0,0-.44-.2.6.6,0,0,0-.6.7.65.65,0,0,0,.22.4.84.84,0,0,0,.47.21c.07,0,.11,0,.13,0a.08.08,0,0,0,0-.06h0l0,.33h0s0-.06,0-.07h0a1.35,1.35,0,0,1-.36-.08,1.37,1.37,0,0,1-.3-.21.81.81,0,0,1-.29-.52.71.71,0,0,1,0-.29.75.75,0,0,1,.18-.31.68.68,0,0,1,.59-.24,1,1,0,0,1,.56.26,1.29,1.29,0,0,1,.33.52l0,0s0,0,.08,0Z"/><path class="cls-4" d="M38.4,11.92l-.88.75,0,.06a.12.12,0,0,0,0,.08l0,0-.23-.27,0,0,.07,0a.13.13,0,0,0,.07,0l.88-.76L38,11.42s0-.05-.06-.05,0,0-.07,0l0,0,.24-.2,0,0a.17.17,0,0,0,0,.07.13.13,0,0,0,0,.07l.74.86s0,.05.06.05a.11.11,0,0,0,.07,0l0,0-.24.2,0,0a.11.11,0,0,0,0-.07s0,0,0-.06Z"/><path class="cls-4" d="M23.32,28.49a.64.64,0,0,1,.47.65.7.7,0,0,1-.28.6.88.88,0,0,1-.32.16,1.5,1.5,0,0,1-.45,0h-1.9v-.06c.05,0,.08,0,.1-.06a.12.12,0,0,0,0-.09V27.37a.17.17,0,0,0,0-.1l-.1-.05v-.06h1.89a1.69,1.69,0,0,1,.43,0,.71.71,0,0,1,.29.14.65.65,0,0,1,.25.56A.62.62,0,0,1,23.32,28.49Zm-1.74-.22h1.06A.64.64,0,0,0,23,28.2a.36.36,0,0,0,0-.51.59.59,0,0,0-.34-.07H21.58Zm0,1.21h1a.82.82,0,0,0,.41-.08.38.38,0,0,0,0-.6.72.72,0,0,0-.41-.08h-1Z"/><path class="cls-4" d="M25.15,27.87v1.87a.12.12,0,0,0,0,.09s.05.05.1.06V30h-.81v-.06a.19.19,0,0,0,.1-.05.17.17,0,0,0,0-.1V27.87a.15.15,0,0,0,0-.1.19.19,0,0,0-.1-.05v-.06h.81v.06a.19.19,0,0,0-.1.05A.15.15,0,0,0,25.15,27.87Z"/><path class="cls-4" d="M26.62,28.44v1.3a.17.17,0,0,0,0,.1l.1.05V30H26v-.06a.19.19,0,0,0,.1-.05.15.15,0,0,0,0-.1V27.87a.17.17,0,0,0,0-.1.19.19,0,0,0-.1-.05v-.06h.87v.06c-.06,0-.09,0-.09.08a.2.2,0,0,0,.07.11l1.22,1.22V27.87a.12.12,0,0,0,0-.09s-.06,0-.1-.06v-.06h.76v0c-.05,0-.09,0-.11.06a.12.12,0,0,0,0,.09v1.87a.15.15,0,0,0,0,.1.19.19,0,0,0,.1.05V30h-.82v-.06c.06,0,.09,0,.09-.07a.07.07,0,0,0,0-.06l-.11-.12Z"/></g></g></svg>