<svg xmlns="http://www.w3.org/2000/svg" width="148.874" height="141.323" viewBox="0 0 148.874 141.323"><defs><style>.a{fill:#fcf3cd;}.b{fill:#ffe75c;}.c{fill:#feea78;}.d{fill:#ffe96b;}.e{fill:#feeb95;}.f{fill:none;stroke:#000;stroke-width:2px;}</style></defs><g transform="translate(-1255.065 -875.406)"><g transform="translate(1258.942 875.406)"><path class="a" d="M102.274,18.693l68.773,36.659-23.611,4.914-72.79-8.648L36.53,26.267Z" transform="translate(-26.049 -18.693)"/><g transform="translate(0 7.574)"><path class="b" d="M265.678,217.966s59.078-13.633,59.987-13.936,6.665-5.151,6.665-5.151l2.121-52.413-67.259,14.239Z" transform="translate(-189.454 -117.381)"/><path class="b" d="M31.25,98.717l67.259,46.96,1.515-57.261L32.765,45.092Z" transform="translate(-22.284 -45.092)"/><path class="b" d="M25.679,349.887q21.207,15.148,16.966,38.78c-.933,2.507-30.3-5.813-35.447-6.059a7.231,7.231,0,0,1-6.866-9.4C4.459,359.979,12.211,351.327,25.679,349.887Z" transform="translate(0 -262.44)"/></g><path class="c" d="M35.6,54.515C41.371,63,48.537,73.628,54.2,82.275c11.38,17.37,13.164,2.8,19.782,17.825s1.58,35.05,23.9,35.96c1.252.051,2.583.091,3.978.114l1.264-47.758L35.868,45.092Z" transform="translate(-25.388 -37.518)"/><path class="c" d="M169.384,126.684s36.034-6.126,45.043,0,27.747,8.648,27.747,8.648L225.958,164.88s-17.3-2.883-20.179,2.522-10.45,13.693-10.45,13.693L188.122,167.4l-10.81-3.243Z" transform="translate(-120.787 -93.76)"/><path class="d" d="M191.192,125.757c12.2,12.376-1.039-.3,15.593,11.273s14.733,1.558,14.545,9.3,6.42,1.023,21.1,6.2a14.564,14.564,0,0,0,5.6.485l9.7-17.681s-18.738-2.522-27.747-8.648C223.323,122.159,201.922,124.319,191.192,125.757Z" transform="translate(-136.338 -93.759)"/><path class="e" d="M222.045,130.429a36.511,36.511,0,0,1-7.618-3.745c-9.009-6.126-45.043,0-45.043,0l7.927,37.476s6.631-2.675,13.923-11.089,6.441,23.483,21.1-6.2A152.623,152.623,0,0,1,222.045,130.429Z" transform="translate(-120.787 -93.759)"/><path class="c" d="M40.471,349.888c-8.843.945-15.222,5-19.728,11.416a48.282,48.282,0,0,0,3.355,7.781,7.228,7.228,0,0,0,11.516,1.721c1.832-1.686,8.986-6.076,15.761-10.435a47.921,47.921,0,0,0-10.9-10.483Z" transform="translate(-14.792 -254.866)"/></g><g transform="translate(1256.123 881.196)"><path class="f" d="M33.456,299.051a4.881,4.881,0,0,0-3.348-.88c-14.553,1.555-24.5,10.565-29.556,26.78a12.117,12.117,0,0,0,11.3,15.748c3.87.186,26.8,6.551,33.938,6.551,4.124,0,6.191-1.942,6.644-4.477C55.523,325.579,49.57,310.561,33.456,299.051Z" transform="translate(0.001 -212.716)"/><path class="f" d="M168.168,41.486c6.285,4.274,19.425,6.934,24.937,7.759l9.679-2.015L147.009,17.5,95.8,23.4l25.565,17C132.274,38.723,158.983,35.239,168.168,41.486Z" transform="translate(-66.635 -17.5)"/></g></g></svg>