<svg xmlns="http://www.w3.org/2000/svg" width="148.874" height="141.323">
  <defs>
    <style>
      .b{fill:#ffe75c}.c{fill:#feea78}.f{fill:none;stroke:#000;stroke-width:2px}
    </style>
  </defs>
  <path d="M80.102 0l68.773 36.659-23.611 4.914-72.79-8.648L14.358 7.574z" fill="#fcf3cd"/>
  <path class="b" d="M80.101 108.159s59.078-13.633 59.987-13.936 6.665-5.151 6.665-5.151l2.121-52.413-67.259 14.239z"/>
  <path class="b" d="M12.843 61.199l67.259 46.96 1.515-57.261L14.358 7.574zM29.556 95.021q21.207 15.148 16.966 38.78c-.933 2.507-30.3-5.813-35.447-6.059a7.231 7.231 0 01-6.866-9.4c4.127-13.229 11.879-21.881 25.347-23.321z"/>
  <path class="c" d="M14.089 16.997c5.771 8.485 12.937 19.113 18.6 27.76 11.38 17.37 13.164 2.8 19.782 17.825s1.58 35.05 23.9 35.96c1.252.051 2.583.091 3.978.114l1.264-47.758L14.357 7.574z"/>
  <path class="c" d="M52.474 32.924s36.034-6.126 45.043 0 27.747 8.648 27.747 8.648L109.048 71.12s-17.3-2.883-20.179 2.522-10.45 13.693-10.45 13.693L71.212 73.64l-10.81-3.243z"/>
  <path d="M58.731 31.998c12.2 12.376-1.039-.3 15.593 11.273s14.733 1.558 14.545 9.3 6.42 1.023 21.1 6.2a14.564 14.564 0 005.6.485l9.7-17.681s-18.738-2.522-27.747-8.648c-6.66-4.527-28.061-2.367-38.791-.929z" fill="#ffe96b"/>
  <path d="M105.135 36.67a36.511 36.511 0 01-7.618-3.745c-9.009-6.126-45.043 0-45.043 0l7.927 37.476s6.631-2.675 13.923-11.089 6.441 23.483 21.1-6.2a152.623 152.623 0 019.711-16.442z" fill="#feeb95"/>
  <path class="c" d="M29.556 95.022c-8.843.945-15.222 5-19.728 11.416a48.282 48.282 0 003.355 7.781 7.228 7.228 0 0011.516 1.721c1.832-1.686 8.986-6.076 15.761-10.435a47.921 47.921 0 00-10.9-10.483z"/>
  <g>
    <path class="f" d="M34.515 92.125a4.881 4.881 0 00-3.348-.88c-14.553 1.555-24.5 10.565-29.556 26.78a12.117 12.117 0 0011.3 15.748c3.87.186 26.8 6.551 33.938 6.551 4.124 0 6.191-1.942 6.644-4.477 3.089-17.194-2.864-32.212-18.978-43.722zM102.591 29.776c6.285 4.274 19.425 6.934 24.937 7.759l9.679-2.015L81.432 5.79l-51.209 5.9 25.565 17c10.909-1.677 37.618-5.161 46.803 1.086z"/>
  </g>
</svg>
