<svg xmlns="http://www.w3.org/2000/svg" width="140.113" height="32.653">
  <path d="M110.548 2.673C103.392.441 92.737.961 85.455 2.414c-5.881 1.175-11.752 4.681-18.411 5.245-8.4.712-16.9-.839-25.259-1.163-11.142-.432-32.332-2.214-40.563 6.8 8.027 14.543 30.948.481 42.528 1.943 6.906.872 13.43 8.481 19.4 11.633 6.883 3.633 14.661 6 22.708 4.138 15.5-3.585 16.02-17.709 34.838-16.551 5.422.334 12.353 4.376 16.738-2.109 8.905-13.168-20.767-9.322-26.891-8.71" fill="none" stroke="#000" stroke-miterlimit="10" stroke-width="2"/>
</svg>
