<svg xmlns="http://www.w3.org/2000/svg" width="183.679" height="48.989">
  <path d="M147.934 2.4c-10.821-1.827-24-2.4-36.574 1.724-10.746 3.525-21.99 7.31-33.1 8.925-11.078 1.611-21.812.1-32.9.008-13.2-.115-18.012 6.411-28.1 10.614-5.682 2.369-25.866 5.151-10.69 12.852 7.762 3.939 22.763-1.284 30.246-3.358 13.286-3.683 14.358-3.452 25.927 4.088 8.677 5.655 15.167 7.3 24.441.266 11.413-8.654 10.482-14.474 24.159-3.432 12.238 9.879 25.249 13.019 40.464 13.815 16.144.845 34.327-5.161 30.282-24.933-3.271-15.985-19.721-18.5-33.182-20.569" fill="none" stroke="#000" stroke-miterlimit="10" stroke-width="2"/>
</svg>
