<svg xmlns="http://www.w3.org/2000/svg" width="598.256" height="379.335">
  <defs>
    <style>
      .a{fill:#43b060}.b{fill:#d6d6d6}.c{fill:#ffe75c}.d{fill:#fffff5}.e,.f{fill:none;stroke-miterlimit:10;stroke-width:2px}.e{stroke:#000}.f{stroke:#fafafc}
    </style>
  </defs>
  <path class="a" d="M552.877 65.321s15.557-8.3 24.525-4.983 19.238 7.972 20.234 12.29-10.92 12.956-17.9 14.283-26.864-4.65-26.864-4.65zM11.044 56.542S.555 88.684 4.291 109.61s10.147 78.466 6.555 99.4-7.4 48.583-7.4 48.583l8.436 17.937 4.447-7.565 8.007 3.646v-17.784s-7.365-2.221-5.123-28.376-.76-55.3-2.254-77.721 13.446-56.05 14.193-59.04-20.108-32.148-20.108-32.148z"/>
  <path class="b" d="M391.866 184.35c-2.242 23.917-15.695 67.259-17.189 82.954s-8.968 25.411-11.958 30.643-5.231 37.533-7.29 42.705c-.936 2.357 2.233 9.254 5.955 16.19 4.449 8.281 9.686 16.328 9.686 16.328h-27.667l-7.349-6.6s.145-.528.329-1.49c.5-2.625 1.31-8.032.309-11.863-1.365-5.231-.125-13.438.005-23.9s6.6-41.1 1.544-47.825 4.33-48.576.593-82.951 11.988-74.741 11.988-74.741l41.041 3s2.246 33.634.003 57.55z"/>
  <path d="M371.069 373.171h-27.666l-7.349-6.6s.145-.528.329-1.49l19.043-5.137 5.955-3.118c4.452 8.282 9.688 16.345 9.688 16.345z"/>
  <path class="b" d="M126.059 367.239l-32.969 6.168s-1.56-5.456-4-14.165c-5.969-21.36-17.2-62.312-23.572-90.443-8.968-39.611 7.474-59.791 7.474-59.791l22.422 21.674s-5.232 71.744 0 82.954 13.453 31.39 13.453 31.39l2.033 6.846.957 3.214z"/>
  <path class="c" d="M25.077 147.23s6.636 41.115 0 59.051 20.882 77.667 53.084 78.817 53.875-2.617 71.064-13.065a118.643 118.643 0 0028.4-24.647s-1.495-39.609 0-42.6-13.452-32.136-14.947-35.125-29.147-23.19-32.135-22.431-105.466 0-105.466 0z"/>
  <path class="c" d="M100.901 272.032s12.448 7.489 13.2 21.688.747 20.563 6.726 20.744-1.495-37.186 13.452-46.154z"/>
  <path class="c" d="M120.839 252.6s12.448 7.488 13.2 21.687.747 20.563 6.726 20.745-1.5-37.186 13.452-46.154zM72.503 265.555s12.448 7.489 13.2 21.688.747 20.563 6.726 20.744-1.495-37.186 13.452-46.154z"/>
  <path d="M126.058 367.239l-32.969 6.168s-1.56-5.456-4-14.165l21.808-7.369.957 3.214z"/>
  <path class="d" d="M507.951 147.728a35.836 35.836 0 00-10.3 1.093c-27.249 6.588-62.451 40.3-64.432 59.447-2.24 21.668-17.188 8.216-33.632 30.636s-35.872 21.676-60.532 2.988q-3.243-2.454-6.428-4.611c-14.936-10.135-28.918-15.425-41.256-15.692a39.038 39.038 0 00-16.592 3.115c-17.188 7.472-80.712 9.716-105.376 5.232s-53.8-61.28-53.8-61.28-5.232-14.948-12.087-8.224-31.26 88.936-34.253 108.368 6.728 66.68 9.716 71.855c1.553 2.684 8.109 13 14.052 22.32 5.5 8.627 10.484 16.361 10.484 16.361h-29.02l-7.472-8.934-14.2-5.207s.288-4.35.485-10.112c.251-7.319.349-16.909-.485-22.762-1.5-10.464-10.468-45.59-17.944-64.27s-1.5-25.411 3.728-52.315c4.394-22.6-5.984-64.69-15.174-97.961-1.751-6.346-3.461-12.371-5.018-17.878-7.353-26.02-9.589-51.152-5.7-66.4 1.249-4.9 3.128-8.779 5.672-11.335C31.777 8.702 67.028 5.735 80.48 7.97c9.568 1.595 58.09 2.437 99.293.1 16.719-.949 32.234-2.421 43.451-4.578 24.45-4.7 50.68-3.781 74.214-2.269 13.518.871 26.148 1.936 37.039 2.244l.851.025c29.888.748 85.2 27.652 103.879 34.376 11.755 4.233 35.95 3.732 52.266 2.778 4.632-.271 8.627-.579 11.524-.826 3.12-.263 4.965-.456 4.965-.456s27.639 109.86-.011 108.364z"/>
  <path d="M503.146 71.55l-1.644-.822c.44 11.434-6.539 23.1-16.148 30.369a34.81 34.81 0 01-17.57 7.258c-18.885 1.681-46.512-13.037-54.05-30.845-3.884-9.174-3.341-13.177-13.32-16.444-9.564-3.132-19.572-3.83-28.926-3.715-7.135.09-4.788 1.665-10.534-3.888-3.686-3.563-11.039-8.639-12.4-14.011-2.609-10.291 2.828-14.377-6.473-23.184-4.372-4.139-7.135-8.536-7.615-12.8l.851.025c29.888.748 85.2 27.652 103.879 34.376 11.755 4.233 35.95 3.732 52.266 2.778a384.805 384.805 0 003.465 3.8c.415.444 1 1.11 1.693 1.944 5.515 6.602 17.936 23.72 6.526 25.159z"/>
  <path class="d" d="M343.536 184.353c-1.319 14.105-6.543 34.968-10.912 52.928-2.178 8.964-4.147 17.208-5.314 23.53-.456 2.487-.789 4.677-.962 6.494-1.5 15.7-8.968 25.412-11.96 30.644-1.262 2.215-2.4 9.272-3.436 17.077-1.418 10.633-2.667 22.646-3.851 25.63-.937 2.355 2.232 9.251 5.951 16.188 4.451 8.282 9.687 16.328 9.687 16.328h-27.664l-7.349-6.6s.144-.525.329-1.487c.505-2.626 1.311-8.033.308-11.863-1.365-5.232-.123-13.44 0-23.9s6.6-41.1 1.545-47.822c-3.958-5.265.933-32.04 1.455-59.906a183.484 183.484 0 00-.859-23.044c-3.74-34.38 11.985-74.744 11.985-74.744l41.042 3s2.249 33.627.005 57.547z"/>
  <path d="M322.739 373.171h-27.663l-7.349-6.6s.144-.528.329-1.49l19.043-5.137 5.954-3.118c4.45 8.282 9.686 16.345 9.686 16.345zM103.508 379.335H74.49l-7.474-8.933-14.2-5.209s.392-4.348.591-10.113l12.439 1.88v10.468l27.281-4.455a3997.075 3997.075 0 0110.381 16.362z"/>
  <path class="d" d="M558.019 161.928c-7.472 6.728-24.66 2.244-29.144 0s-16.444-3.736-30.64-12.7a10.87 10.87 0 01-.588-.4c-8.566-6.206-12.013-26.74-12.293-47.725a204.911 204.911 0 012.417-34.828 43.009 43.009 0 018.849-19.88 47.14 47.14 0 016.366-6.568c9.247-7.891 20.156-11.339 25.7-10.933.062 0 .123.012.185.016 9.642.875 19.026 13.062 25.691 25.552 4.706 8.812 8.06 17.772 9.194 23.024 2.754 12.7-5.618 37.762 2.626 54.938 11.294 23.528-.887 22.78-8.363 29.504z"/>
  <path class="a" d="M546.123 142.384c-2.7-1.23-7.307 7.307-5.647 10.961a41.687 41.687 0 012.649 9.965c.374 2.078 6.652 6.644 15.953 6.311s13.951-1 13.951-8.968 1.33-19.266-2.989-18.269-16.609 3.322-23.917 0z"/>
  <path class="c" d="M545.458 149.028s6.311 2.989 8.969 3.322-3.321 6.541-4.485 3.6a33.748 33.748 0 00-4.484-6.922z"/>
  <path class="a" d="M489.986 77.612s-8.3-16.277-24.248-14.948-18.933 11.958-21.591 14.948 3.987 6.311 10.63 8.968 20.262 9.3 28.235 5.979 6.974-14.947 6.974-14.947z"/>
  <path class="e" d="M485.366 101.902s-2.052 39.891 12.868 47.323M291.366 221.585s-1.959-35.934-.982-44.823 1.618-35.914 10.606-48.78M332.623 237.279s11.117-46.911 11.908-71.8-1-38.681-1-38.681M126.059 24.696s-29.305 0-31.607 17.262 37.8 51.511 37.8 51.511M500.606 102.413s4.556 5.1 10.84 0"/>
  <path class="f" d="M444.147 77.612s22.815-17.776 45.839 0M560.497 67.289s23.949-5.089 37.14 5.34"/>
  <path d="M296.645 12.141c-1.077 7.583-2.478 19.588-11.146 22.872-8.8 3.337-16.148-6.457-25.026-7.686-10.526-1.459-13.057 5.774-20.349 11.323-13.32 10.139-42.892 11.705-52.842-4.085-4.862-7.714-3.465-16.033-6.338-23.883a19.141 19.141 0 00-1.184-2.61c16.719-.949 32.234-2.421 43.451-4.578 24.45-4.7 50.68-3.781 74.214-2.269a60.435 60.435 0 01-.78 10.916z"/>
  <path d="M.91 35.382l-.584 1.554a9.05 9.05 0 00-.325-.728c.126-.301 1.421-1.94.909-.826z" fill="#151539"/>
  <path d="M65.101 119.431c-15.758 4.874-29.752 4.529-41.679-1.656-1.751-6.346-3.461-12.371-5.018-17.878-7.353-26.02-9.589-51.153-5.7-66.4 11.171.362 21.639 13.086 27.664 21.61 10.411 14.747 35.7 1.295 34.355 25.523-.851 15.313 10.768 32.488-9.622 38.801zM301.759 36.204c-13.321 13.442-30.977-1.76-44.43 6.554-6.567 4.058-6.888 11.578.024 14.015 6.563 2.314 13.305-1.274 19.723 2.656 6.683 4.092 8.772 16.232 17.285 16.231 8.466 0 7.415-7.685 11.283-13.195 3.548-5.053 11.212-6.109 13.214-12.47 2.359-7.5-4.091-11.224-9.7-13.791a49.846 49.846 0 00-4.11-1.644zM554.566 54.456c-6.941 4.122-15.651 4.607-18.766-4.278-2.425-6.913-2.17-15.725-7.11-21.29.062 0 .123.012.185.016 9.642.876 19.025 13.059 25.691 25.552zM327.31 260.81c-.456 2.487-.789 4.677-.962 6.494-1.5 15.7-8.968 25.412-11.96 30.644-1.262 2.215-2.4 9.272-3.436 17.077a9.626 9.626 0 01-3.419-2.589c-4.246-4.961-4.307-10.887-2.441-16.436 1.845-5.479 6.568-6.65 8.853-10.916 3.169-5.914-2.178-13.164 2.137-18.721 1.964-2.532 7.093-4.443 11.228-5.553z"/>
</svg>
