<svg xmlns="http://www.w3.org/2000/svg" width="407.37" height="239.066" viewBox="0 0 407.37 239.066"><defs><style>.a{fill:none;stroke:#000;stroke-miterlimit:10;stroke-width:2px;}</style></defs><g transform="translate(-1166 -658.057)"><line class="a" x2="407.13" transform="translate(1166 896.123)"/><path class="a" d="M1647.275,1037.8s54.936-85.65,71.809-106.542,53.078-69.3,113.566-53.533,113.771,94.8,99.562,160.075" transform="translate(-363.728 -141.45)"/><path class="a" d="M1935.556,815.715s40.6-73.227,94.773-55.079,81.484,57.112,57.171,148.19" transform="translate(-524.007 -76.468)"/><path class="a" d="M2116.726,730.057s16.994-28.918,54.292-20.858,20.97,77.838,20.97,77.838" transform="translate(-624.734 -48.689)"/><path class="a" d="M2270.371,728.8s5.958,37.636,1.047,56.409" transform="translate(-710.158 -60.376)"/><path class="a" d="M2270.8,874.623s2.116,53.124-5.031,85.725" transform="translate(-707.599 -141.45)"/><path class="a" d="M2264.525,1089.506s1.3,47.029-7.355,67.938" transform="translate(-702.818 -260.921)"/><path class="a" d="M2257.17,717.731s3.33,35.556,0,51.167" transform="translate(-702.818 -54.221)"/><path class="a" d="M2254.816,848.239s-.748,58.235-8.557,80.818" transform="translate(-696.752 -126.781)"/><path class="a" d="M2243,1073.234s-7.638,60.569-18,74.991" transform="translate(-684.932 -251.874)"/><path class="a" d="M2217.483,1037.82s-11.908,71.31-26.483,90.888" transform="translate(-666.029 -232.185)"/><g transform="translate(1526.232 789.139)"><path class="a" d="M2216.369,1037.82s-5.2,23.666-10.886,38.761" transform="translate(-2200.313 -1021.323)"/><path class="a" d="M2207.018,1018.76s-3.723,16.955-7.8,27.771" transform="translate(-2196.831 -1010.726)"/><path class="a" d="M2198.274,1000.667a143.678,143.678,0,0,1-4.434,15.79" transform="translate(-2193.84 -1000.667)"/></g><g transform="translate(1533.296 706.487)"><path class="a" d="M2236.237,849.449s-3.277,24.008-7.733,39.511" transform="translate(-2220.176 -833.94)"/><path class="a" d="M2224.275,831.514s-2.348,17.2-5.541,28.308" transform="translate(-2214.744 -823.969)"/><path class="a" d="M2212.9,814.521a143.824,143.824,0,0,1-3.15,16.1" transform="translate(-2209.748 -814.521)"/></g></g></svg>