<svg xmlns="http://www.w3.org/2000/svg" width="407.37" height="239.066">
  <defs>
    <style>
      .a{fill:none;stroke:#000;stroke-miterlimit:10;stroke-width:2px}
    </style>
  </defs>
  <path class="a" d="M0 238.066h407.13M117.547 238.293s54.936-85.65 71.809-106.542 53.078-69.3 113.566-53.533 113.771 94.8 99.562 160.075"/>
  <path class="a" d="M245.549 81.19s40.6-73.227 94.773-55.079 81.484 57.112 57.171 148.19"/>
  <path class="a" d="M325.992 23.311s16.994-28.918 54.292-20.858 20.97 77.838 20.97 77.838M394.213 10.367s5.958 37.636 1.047 56.409M397.201 75.116s2.116 53.124-5.031 85.725M395.707 170.528s1.3 47.029-7.355 67.938M388.352 5.453s3.33 35.556 0 51.167M392.064 63.401s-.748 58.235-8.557 80.818M392.068 163.303s-7.638 60.569-18 74.991M385.454 147.578s-11.908 71.31-26.483 90.888M376.288 147.579s-5.2 23.666-10.886 38.761M370.419 139.116s-3.723 16.955-7.8 27.771M364.666 131.082a143.678 143.678 0 01-4.434 15.79"/>
  <g>
    <path class="a" d="M383.357 63.939s-3.277 24.008-7.733 39.511M376.827 55.975s-2.348 17.2-5.541 28.308M370.448 48.43a143.824 143.824 0 01-3.15 16.1"/>
  </g>
</svg>
