<svg xmlns="http://www.w3.org/2000/svg" width="110.731" height="101">
  <path d="M49.495 100.001a48.2 48.2 0 0044.218-27.9 37.794 37.794 0 01-15.936 3.148A38.933 38.933 0 0138.889 36.36 40.3 40.3 0 0159.86 1.592a73.906 73.906 0 00-10.365-.585 49.5 49.5 0 100 98.99zm0 0" fill="#efefef"/>
  <path d="M64.495 100.001a48.2 48.2 0 0044.218-27.9 37.794 37.794 0 01-15.936 3.148A38.933 38.933 0 0153.889 36.36 40.3 40.3 0 0174.86 1.592a73.906 73.906 0 00-10.365-.585 49.5 49.5 0 100 98.99zm0 0" fill="none" stroke="#fff" stroke-width="2"/>
</svg>
