<svg xmlns="http://www.w3.org/2000/svg" width="110.731" height="101" viewBox="0 0 110.731 101"><defs><style>.a{fill:#efefef;}.b{fill:none;stroke:#fff;stroke-width:2px;}</style></defs><g transform="translate(-561 -221)"><path class="a" d="M49.518,99A48.2,48.2,0,0,0,93.736,71.1,37.794,37.794,0,0,1,77.8,74.248,38.933,38.933,0,0,1,38.912,35.359,40.3,40.3,0,0,1,59.883.591,73.906,73.906,0,0,0,49.518.006a49.5,49.5,0,1,0,0,98.99Zm0,0" transform="translate(560.977 222.001)"/><path class="b" d="M49.518,99A48.2,48.2,0,0,0,93.736,71.1,37.794,37.794,0,0,1,77.8,74.248,38.933,38.933,0,0,1,38.912,35.359,40.3,40.3,0,0,1,59.883.591,73.906,73.906,0,0,0,49.518.006a49.5,49.5,0,1,0,0,98.99Zm0,0" transform="translate(575.977 222.001)"/></g></svg>